<svg width="270" height="285" viewBox="0 0 270 285" fill="none" xmlns="http://www.w3.org/2000/svg"><path opacity="0.35" d="M239.88 41.7126C239.24 41.3314 239.433 39.9794 240.155 39.7979C241.22 39.5305 242.338 39.137 243.135 38.5659C244.058 37.9034 244.881 36.7635 245.515 35.6872C245.888 35.054 247.169 35.242 247.346 35.9553C247.664 37.2411 248.168 38.6656 248.951 39.6056C249.604 40.3902 250.727 41.1251 251.764 41.696C252.39 42.0405 252.245 43.1782 251.552 43.3491C250.372 43.6396 249.057 44.0621 248.212 44.6332C247.173 45.3357 246.258 46.5836 245.577 47.7167C245.206 48.3341 244.013 48.1556 243.847 47.4547C243.543 46.173 243.071 44.7202 242.369 43.7747C241.777 42.9764 240.822 42.2728 239.88 41.7126Z" fill="#F9D6FF"/><path d="M89.5333 156.806L180.692 97.6907C185.579 94.5221 192.14 97.0384 193.652 102.66C200.912 129.671 189.842 158.753 165.758 174.371C141.674 189.989 110.566 188.259 88.8085 170.649C84.2802 166.984 84.6471 159.975 89.5333 156.806Z" fill="#58CC02"/><rect x="178.221" y="96.3208" width="26.9637" height="13.4819" rx="6.74093" fill="#58CC02"/><path d="M37.9046 245.232L59.2779 144.773C60.4235 139.388 66.4954 136.687 71.2693 139.439C94.2063 152.659 106.275 179.512 100.628 206.053C94.981 232.594 73.0236 252.222 46.6877 254.978C41.2063 255.552 36.759 250.617 37.9046 245.232Z" fill="#58CC02"/><path fill-rule="evenodd" clip-rule="evenodd" d="M175.964 265.708C173.935 269.68 169.073 271.259 165.097 269.239L157.213 265.232C157.207 265.23 157.202 265.227 157.197 265.224C153.236 263.201 151.665 258.349 153.689 254.388C155.718 250.416 160.58 248.836 164.556 250.857L172.44 254.863C172.445 254.866 172.451 254.869 172.456 254.871C176.417 256.895 177.987 261.747 175.964 265.708Z" fill="#F49000"/><path fill-rule="evenodd" clip-rule="evenodd" d="M132.087 262.08C132.087 266.553 128.461 270.179 123.988 270.179H111.053C106.58 270.179 102.954 266.553 102.954 262.08C102.954 257.607 106.58 253.981 111.053 253.981H123.988C128.461 253.981 132.087 257.607 132.087 262.08Z" fill="#F49000"/><path fill-rule="evenodd" clip-rule="evenodd" d="M181.106 262.112C181.106 266.567 177.495 270.179 173.039 270.179H170.546C166.091 270.179 162.479 266.567 162.479 262.112C162.479 257.657 166.091 254.045 170.546 254.045H173.039C177.495 254.045 181.106 257.657 181.106 262.112Z" fill="#F49000"/><path fill-rule="evenodd" clip-rule="evenodd" d="M109.651 93.2016C111.488 91.0984 113.726 89.3832 116.235 88.1565C126.641 83.0678 139.202 87.3783 144.29 97.7841L172.782 156.047C172.801 156.085 172.82 156.124 172.839 156.163C187.899 187.123 175.01 224.429 144.05 239.489C113.008 254.59 75.5994 241.709 60.4343 210.698L32.0475 152.65C30.8034 150.106 30.0874 147.336 29.9426 144.508C29.3506 132.939 38.2486 123.081 49.817 122.489C67.1983 121.6 78.5874 119.842 83.9845 117.217C89.4245 114.571 97.9802 106.566 109.651 93.2016Z" fill="#58CC02"/><path d="M108.384 106.374C108.791 104.961 110.101 104.528 111.322 105.349C117.186 109.292 119.897 116.666 117.892 123.63C115.887 130.594 109.665 135.417 102.593 135.666C101.121 135.718 100.029 134.322 100.436 132.909L108.384 106.374Z" fill="#89E219"/><path fill-rule="evenodd" clip-rule="evenodd" d="M101.695 127.468C108.311 140.857 114.179 152.859 119.302 163.472C104.901 170.387 97.7191 173.881 97.7547 173.954C97.8081 174.063 87.2307 152.433 80.1343 137.922C88.7079 141.445 99.0909 136.428 101.695 127.468Z" fill="#89E219"/><path d="M118.814 106.529C119.221 105.115 120.891 104.507 122.111 105.328C127.975 109.273 130.685 116.65 128.678 123.619C126.672 130.589 120.448 135.415 113.377 135.666C111.905 135.718 110.812 134.321 111.22 132.907L118.814 106.529Z" fill="#89E219"/><path d="M60.442 129.815L86.0652 140.337C87.4192 140.91 87.8167 142.637 86.8503 143.748C82.2067 149.087 74.5431 150.888 67.869 148.063C61.195 145.239 57.1704 138.492 57.7967 131.453C57.927 129.988 59.088 129.242 60.442 129.815Z" fill="#89E219"/><path d="M53.9985 138.02L79.2775 148.718C80.6325 149.292 81.0306 151.02 80.0639 152.131C75.4189 157.469 67.7513 159.268 61.0727 156.441C54.394 153.615 50.3655 146.866 50.9903 139.827C51.1204 138.362 52.6436 137.447 53.9985 138.02Z" fill="#89E219"/><path fill-rule="evenodd" clip-rule="evenodd" d="M115.121 113.14C126.668 107.523 140.583 112.314 146.223 123.85L153.701 139.14C153.708 139.154 153.715 139.169 153.722 139.183C159.347 150.747 154.533 164.682 142.969 170.307L141.228 171.154C129.681 176.771 115.767 171.98 110.126 160.444L102.649 145.154C102.642 145.14 102.635 145.125 102.627 145.111C97.0022 133.547 101.816 119.612 113.38 113.987L115.121 113.14Z" fill="#89E219"/><path fill-rule="evenodd" clip-rule="evenodd" d="M60.7095 139.051C60.7486 139.032 60.7878 139.014 60.8271 138.995C72.4223 133.434 86.3296 138.327 91.8899 149.922L99.2495 165.27C104.788 176.819 99.9579 190.673 88.4399 196.276L86.8163 197.065C75.2695 202.682 61.3549 197.891 55.7139 186.356L48.2367 171.066C48.2296 171.051 48.2225 171.037 48.2155 171.022C42.5902 159.458 47.4044 145.524 58.9683 139.898L60.7095 139.051Z" fill="#89E219"/><path fill-rule="evenodd" clip-rule="evenodd" d="M119.662 120.743C128.184 116.598 138.453 120.134 142.615 128.647L147.104 137.825C147.109 137.835 147.114 137.846 147.119 137.857C151.253 146.355 147.715 156.596 139.217 160.731C130.695 164.876 120.426 161.34 116.263 152.827L111.775 143.649C111.77 143.639 111.765 143.628 111.759 143.617C107.625 135.119 111.163 124.878 119.662 120.743Z" fill="white"/><path fill-rule="evenodd" clip-rule="evenodd" d="M64.761 147.633C73.2825 143.487 83.5514 147.023 87.7144 155.536L92.2025 164.714C92.2077 164.725 92.2129 164.735 92.2181 164.746C96.3523 173.245 92.8141 183.486 84.3154 187.62C75.7939 191.765 65.525 188.229 61.362 179.716L56.8739 170.538C56.8687 170.528 56.8635 170.517 56.8583 170.506C52.7241 162.008 56.2623 151.767 64.761 147.633Z" fill="white"/><path fill-rule="evenodd" clip-rule="evenodd" d="M121.702 130.957C125.719 129.002 130.56 130.669 132.523 134.683L136.379 142.569C136.382 142.574 136.384 142.579 136.387 142.584C138.336 146.59 136.668 151.418 132.661 153.367C128.644 155.321 123.803 153.654 121.84 149.641L117.984 141.755C117.981 141.75 117.979 141.745 117.976 141.74C116.027 137.734 117.695 132.906 121.702 130.957Z" fill="#4B4B4B"/><path fill-rule="evenodd" clip-rule="evenodd" d="M71.7038 154.913C75.7211 152.959 80.5621 154.625 82.5247 158.639L86.3811 166.525C86.3836 166.53 86.386 166.535 86.3885 166.54C88.3374 170.546 86.6694 175.374 82.6629 177.323C78.6456 179.277 73.8046 177.61 71.842 173.597L67.9856 165.711C67.9831 165.706 67.9807 165.701 67.9783 165.696C66.0293 161.69 67.6973 156.862 71.7038 154.913Z" fill="#4B4B4B"/><path d="M64.3592 191.302L55.8686 174.054C71.783 170.996 85.0429 171.988 100.019 176.9L93.3712 193.212C83.7188 189 74.2054 188.382 64.3592 191.302Z" fill="#89E219"/><path d="M153.983 150.493C144.95 155.372 138.662 162.518 134.823 172.304L118.557 165.458C125.664 151.423 134.338 141.37 147.759 132.309L153.983 150.493Z" fill="#89E219"/><path fill-rule="evenodd" clip-rule="evenodd" d="M104.563 160.123C108.946 157.991 114.227 159.81 116.368 164.188L117.43 166.359C117.433 166.365 117.435 166.37 117.438 166.376C119.564 170.747 117.744 176.013 113.374 178.14C108.991 180.271 103.71 178.453 101.569 174.075L100.507 171.903C100.504 171.898 100.502 171.892 100.499 171.887C98.373 167.516 100.193 162.249 104.563 160.123Z" fill="#F49000"/><path d="M119.587 163.716L119.898 164.353L109.799 171.582L97.8693 175.069L97.5578 174.432C96.0271 168.961 98.7487 162.814 103.897 160.31C109.675 157.499 116.207 159.144 119.587 163.716Z" fill="#FFC200"/><path d="M108.867 161.322C109.827 161.221 110.687 161.917 110.788 162.877C110.889 163.837 110.192 164.697 109.232 164.798C107.738 164.955 106.502 165.556 105.459 166.634C104.787 167.327 103.68 167.344 102.987 166.673C102.294 166.001 102.276 164.895 102.948 164.201C104.562 162.535 106.557 161.565 108.867 161.322Z" fill="#FFDE00"/><path d="M143.716 191.035C144.471 190.668 145.354 191.118 145.46 191.924C145.969 195.795 143.836 199.675 140.116 201.483C136.396 203.291 132.014 202.577 129.266 199.794C128.694 199.215 128.881 198.244 129.636 197.878L143.716 191.035Z" fill="#89E219"/><path fill-rule="evenodd" clip-rule="evenodd" d="M83.3446 160.41C80.7897 161.652 77.7084 160.594 76.4623 158.046C75.2161 155.498 76.2771 152.425 78.832 151.182C81.3869 149.939 84.4683 150.997 85.7144 153.545C86.9605 156.094 85.8995 159.167 83.3446 160.41Z" fill="white"/><path d="M119.207 203.257C119.961 202.89 120.844 203.34 120.95 204.146C121.459 208.017 119.326 211.897 115.606 213.705C111.886 215.513 107.504 214.799 104.756 212.016C104.184 211.437 104.371 210.467 105.126 210.1L119.207 203.257Z" fill="#89E219"/><path d="M137.344 209.124C138.099 208.758 138.981 209.208 139.087 210.013C139.596 213.884 137.463 217.765 133.743 219.573C130.023 221.381 125.641 220.666 122.893 217.884C122.321 217.305 122.509 216.334 123.264 215.967L137.344 209.124Z" fill="#89E219"/><path fill-rule="evenodd" clip-rule="evenodd" d="M132.364 136.454C129.809 137.697 126.728 136.639 125.481 134.09C124.235 131.542 125.296 128.469 127.851 127.226C130.406 125.983 133.488 127.042 134.734 129.59C135.98 132.138 134.919 135.211 132.364 136.454Z" fill="white"/><path opacity="0.3" fill-rule="evenodd" clip-rule="evenodd" d="M189.943 270.179C192.643 270.179 194.832 272.368 194.832 275.068C194.832 277.768 192.643 279.957 189.943 279.957H80.6049C77.9048 279.957 75.7159 277.768 75.7159 275.068C75.7159 272.368 77.9048 270.179 80.6049 270.179H189.943Z" fill="#AFAFAF"/><path d="M225.452 59.1233C228.127 50.443 221.637 41.6514 212.554 41.6514H170.167C161.084 41.6514 154.594 50.443 157.269 59.1233L160.556 69.7854C162.3 75.445 167.531 79.3061 173.453 79.3061H209.268C215.19 79.3061 220.421 75.445 222.165 69.7854L225.452 59.1233Z" fill="#5C6CFC"/><path d="M151.247 64.4819C149.842 60.0797 154.77 56.3687 158.612 58.9357L169.756 66.3798L187.538 48.7058C189.653 46.6034 193.069 46.6021 195.186 48.7028L212.999 66.3798L224.101 58.9523C227.943 56.3817 232.875 60.0928 231.469 64.4966L222.298 93.2237C221.58 95.473 219.489 96.9998 217.128 96.9998H165.593C163.231 96.9998 161.141 95.473 160.423 93.2237L151.247 64.4819Z" fill="#A7A0FF"/><circle r="6.10465" transform="matrix(-1 0 0 1 191.36 33.1047)" fill="#A7A0FF"/><path d="M170.062 72.7173L179.499 64.0201C181.108 62.5375 183.705 63.7559 183.593 65.9408L182.351 90.165C182.306 91.0305 181.591 91.7095 180.725 91.7095H169.402C168.67 91.7095 168.028 91.2205 167.833 90.5145L163.187 73.6723C162.613 71.5917 164.823 69.8441 166.715 70.8818L170.062 72.7173Z" fill="#BFAFFF"/><path d="M216.375 73.4573C216.947 71.5136 218.298 69.8935 220.108 68.9823L223.546 67.2513C224.829 66.6053 226.259 67.8168 225.833 69.1886L219.187 90.5644C218.976 91.2452 218.346 91.709 217.633 91.709H213.18C212.093 91.709 211.311 90.6643 211.618 89.6216L216.375 73.4573Z" fill="#AFB5FF"/><rect width="15.8611" height="15.8611" rx="2.71318" transform="matrix(-0.707107 0.707107 0.707107 0.707107 191.384 65.7646)" fill="#5C6CFC"/><path d="M189.497 70.5577C190.181 69.8741 191.35 70.3583 191.35 71.3252V76.1663C191.35 76.7657 190.864 77.2516 190.265 77.2516H185.424C184.457 77.2516 183.973 76.0826 184.656 75.3989L189.497 70.5577Z" fill="#D6DAFE"/><path opacity="0.3" d="M223.329 1.25136C223.604 0.742491 224.605 0.892533 224.716 1.46027C224.977 2.79669 225.423 4.38724 226.169 5.44411C227.004 6.62662 228.578 7.65793 229.877 8.36747C230.377 8.64092 230.23 9.59532 229.67 9.70547C228.15 10.0047 226.226 10.5547 225.033 11.5323C224.039 12.3474 223.114 13.8738 222.475 15.103C222.219 15.5949 221.36 15.4795 221.247 14.9368C220.957 13.5514 220.477 11.7829 219.769 10.718C218.905 9.41809 217.233 8.29589 215.911 7.55218C215.423 7.27815 215.564 6.38283 216.112 6.27556C217.601 5.98456 219.532 5.46554 220.715 4.60044C221.776 3.82559 222.683 2.44688 223.329 1.25136Z" fill="#A9A1FF"/></svg>