<svg width="228" height="224" viewBox="0 0 228 224" fill="none" xmlns="http://www.w3.org/2000/svg"><path opacity="0.3839" fill-rule="evenodd" clip-rule="evenodd" d="M44.2542 207.683L15.6375 204.859C15.3352 204.83 14.9321 204.79 14.6298 204.76C14.3276 204.73 13.9245 204.69 13.6222 204.661L13.4207 204.641C13.2192 204.621 13.0176 204.601 12.9268 204.49C6.16477 202.904 1.50381 196.521 2.20227 189.441C2.96059 181.754 9.82653 176.099 17.4845 176.855C22.9257 177.392 27.3523 180.994 29.12 185.764C31.0725 183.506 34.0435 182.267 37.2679 182.585C42.5076 183.102 46.3206 187.768 45.8017 193.027C45.4226 196.87 42.7757 199.979 39.3009 201.168C41.6703 202.934 44.2203 203.901 47.2432 204.199L48.5531 204.328C49.5607 204.427 50.287 205.316 50.1872 206.327C50.0875 207.339 49.2015 208.069 48.1939 207.969L44.4657 207.601C44.345 207.794 44.2542 207.683 44.2542 207.683Z" fill="white"/><path opacity="0.3839" fill-rule="evenodd" clip-rule="evenodd" d="M136.644 216.899L133.923 216.631C132.916 216.531 132.089 215.633 132.198 214.52C132.288 213.61 133.073 212.87 133.889 212.849C133.99 212.859 134.091 212.869 134.192 212.879L136.912 213.147C137.013 213.157 137.013 213.157 137.114 213.167C148.611 214.199 155.27 213.733 159.963 211.54C158.863 209.287 158.306 206.679 158.575 203.948C159.334 196.261 166.2 190.607 173.858 191.362C181.516 192.118 187.144 199.005 186.386 206.692C186.366 206.894 186.356 206.995 186.336 207.197C186.538 207.217 186.84 207.247 187.042 207.267C190.971 207.655 193.876 211.209 193.487 215.154C193.098 219.098 189.554 222.017 185.625 221.629C185.322 221.599 185.02 221.57 184.819 221.55C184.617 221.53 184.506 221.621 184.305 221.601L137.047 216.939C136.946 216.929 136.845 216.919 136.644 216.899Z" fill="white"/><path opacity="0.3839" d="M197.655 190.442C202.886 190.958 207.547 187.12 208.065 181.869C208.583 176.618 204.762 171.943 199.531 171.427C194.3 170.911 189.639 174.749 189.121 180C188.603 185.251 192.424 189.926 197.655 190.442Z" fill="white"/><path d="M72.8845 4.76298L104.824 88.0913C106.532 92.5571 103.371 97.4288 98.6253 97.6723C75.6868 98.8492 54.2829 85.0251 45.7852 62.9801C37.2875 40.9352 44.0685 16.2719 61.8236 1.77879C65.6062 -1.2254 71.1771 0.29715 72.8845 4.76298Z" fill="#3072C6"/><path d="M77.4048 16.4349L86.0624 39.1091L77.6365 42.0523C75.4234 42.8033 73.0955 41.6868 72.3533 39.4742L67.1556 24.4934C66.4133 22.2808 67.537 19.9464 69.75 19.1954L77.4048 16.4349Z" fill="#235390"/><path d="M185.098 184.713C185.807 189.423 181.736 193.515 177.037 192.778C154.3 189.254 136.196 171.215 132.512 148C128.829 124.786 140.568 102.082 161.101 91.5936C165.339 89.429 170.505 92.0353 171.213 96.7455L185.098 184.713Z" fill="#3072C6"/><path fill-rule="evenodd" clip-rule="evenodd" d="M121.457 15.0295C132.208 15.3752 142.165 17.5829 151.236 21.5417C160.409 25.5103 168.676 31.4323 176.27 39.0239C189.683 52.6023 193.461 73.0938 185.831 90.6217L169.002 129.199C155.852 159.357 120.924 173.068 90.8871 159.892C60.8499 146.716 47.2144 111.67 60.3639 81.512L77.1929 42.9345C84.924 25.4166 102.394 14.3744 121.457 15.0295Z" fill="#3072C6"/><path fill-rule="evenodd" clip-rule="evenodd" d="M141.903 18.1699C145.169 19.1048 148.313 20.2321 151.337 21.5516C154.361 22.8712 157.365 24.3931 160.238 26.2084L107.389 147.325C106.343 149.673 103.593 150.729 101.245 149.782L91.4979 145.451C89.1595 144.403 88.109 141.644 89.0538 139.286L141.903 18.1699Z" fill="white"/><path fill-rule="evenodd" clip-rule="evenodd" d="M131.627 123.367L145.668 129.552C147.815 130.479 148.794 132.925 147.869 135.08C146.945 137.236 144.507 138.221 142.36 137.294L128.32 131.109C126.173 130.182 125.193 127.737 126.118 125.581C127.053 123.324 129.48 122.441 131.627 123.367Z" fill="#235390"/><path d="M88.9213 116.012C91.9322 110.243 89.7551 103.141 84.0587 100.149C78.3622 97.1573 71.3035 99.409 68.2926 105.178C65.2818 110.948 67.4588 118.05 73.1553 121.042C78.8517 124.034 85.9104 121.782 88.9213 116.012Z" fill="white"/><path d="M77.2509 123.824C75.6387 123.665 73.9557 123.193 72.4133 122.326C65.9316 118.929 63.4655 110.924 66.8546 104.416C70.2437 97.9078 78.231 95.3256 84.7127 98.7224C87.8074 100.355 90.0771 103.132 91.1684 106.508C92.2598 109.884 91.9006 113.525 90.2714 116.632C88.6422 119.74 85.8637 122.121 82.4996 123.219C80.7168 123.758 78.9639 123.993 77.2509 123.824ZM79.6666 100.369C75.636 99.9716 71.5676 102.021 69.667 105.817C67.0321 110.867 68.9725 116.982 73.9018 119.613C76.3211 120.873 79.0417 121.141 81.6706 120.277C84.2994 119.413 86.4035 117.68 87.6606 115.251C88.9176 112.822 89.1871 110.091 88.4289 107.463C87.6707 104.835 85.845 102.715 83.4257 101.455C82.1657 100.82 80.8757 100.489 79.6666 100.369Z" fill="#235390"/><path fill-rule="evenodd" clip-rule="evenodd" d="M70.9277 117.788L72.0621 113.508L68.1513 111.897C67.9379 109.935 68.2482 107.821 69.2439 105.979L80.4285 107.083C82.0408 107.242 83.3217 108.696 83.1521 110.415C83.0922 111.022 82.8408 111.508 82.4886 111.984L75.6256 120.702C74.8295 120.522 74.1441 120.25 73.368 119.867C72.4002 119.363 71.7149 119.091 70.9786 118.303L70.9277 117.788Z" fill="#235390"/><path fill-rule="evenodd" clip-rule="evenodd" d="M118.007 21.1231C127.73 20.5503 138.099 22.6967 148.915 27.5424C159.73 32.388 168.29 38.4409 174.564 46.0044C184.288 57.7891 186.551 74.0461 180.489 88.0521L172.989 105.286C171.009 109.891 166.81 113.256 161.834 114.194C145.666 117.195 129.594 115.099 113.598 108.108C97.6012 101.117 85.2993 90.7123 76.7925 76.903C74.1587 72.6603 73.7707 67.3115 75.7411 62.808L83.2607 45.3714C89.3226 31.3654 102.865 21.9781 118.007 21.1231Z" fill="#235390"/><path fill-rule="evenodd" clip-rule="evenodd" d="M121.717 22.7146C131.419 32.6588 138.558 38.6737 143.245 40.6679C147.922 42.7633 157.172 43.8802 170.976 44.2207C171.803 45.1193 172.63 46.0179 173.356 46.9065C182.727 58.1457 184.848 73.776 179.047 87.195L171.548 104.429C169.718 108.538 165.963 111.538 161.611 112.334C145.755 115.263 129.985 113.197 114.382 106.347C98.6779 99.4873 86.6583 89.3145 78.2323 75.7174C75.8609 71.9091 75.5138 67.177 77.3435 63.0682L84.8431 45.8339C90.7445 32.4248 103.642 23.3825 118.261 22.68C119.279 22.6783 120.498 22.6964 121.717 22.7146Z" fill="#58CC02"/><path fill-rule="evenodd" clip-rule="evenodd" d="M178.916 87.4885L171.427 104.622C169.597 108.731 165.842 111.73 161.49 112.526C154.338 113.863 147.184 114.179 140.131 113.483C132.782 109.592 128.342 102.005 128.314 94.0367C125.583 92.8481 120.996 90.8638 114.556 88.0837C108.828 93.5441 100.478 95.682 92.6869 93.1773C86.9694 88.2218 82.1378 82.5367 78.1014 76.0109C75.73 72.2026 75.3829 67.4705 77.2126 63.3617L84.5616 46.6232C88.3438 40.256 94.8286 36.4021 101.81 35.7633C102.917 33.8299 104.305 32.1286 106.178 30.6794C107.275 29.8685 108.958 30.3409 109.333 31.7054L111.05 36.9812C111.151 36.9912 111.252 37.0011 111.242 37.1022C112.318 34.4509 114.088 31.9704 116.495 30.2674C117.592 29.4565 118.882 29.788 119.357 31.1625L127.097 53.781C130.377 59.7216 137.493 62.8746 144.051 61.3769L165.683 51.4601C166.962 50.8714 168.403 51.7285 168.576 53.0732C168.911 55.8636 168.43 58.6757 167.264 61.216C167.365 61.2259 167.365 61.2259 167.456 61.337L171.826 59.3171C173.105 58.7284 174.547 59.5855 174.719 60.9302C174.933 62.8917 174.743 64.8133 174.261 66.6041C179.315 72.1068 181.176 80.052 178.916 87.4885Z" fill="#89E219"/><path fill-rule="evenodd" clip-rule="evenodd" d="M119.159 108.452C117.486 107.879 115.823 107.204 114.271 106.438C112.809 105.784 111.348 105.129 109.896 104.373C108.685 102.211 108.45 99.4302 109.516 96.88L115.166 83.9568C117.006 79.7468 121.981 77.7866 126.174 79.6301C130.367 81.4735 132.317 86.4657 130.477 90.6757L124.827 103.599C123.761 106.149 121.657 107.882 119.159 108.452Z" fill="#F49000"/><path fill-rule="evenodd" clip-rule="evenodd" d="M124.847 82.7672C128.163 84.2177 129.618 88.0378 128.17 91.3673L124.37 99.9795C122.922 103.309 119.115 104.772 115.799 103.321C112.483 101.871 111.028 98.0505 112.476 94.721L116.276 86.1088C117.724 82.7794 121.531 81.3167 124.847 82.7672Z" fill="#B86D00"/><path d="M112.645 81.6655C115.633 77.1604 121.817 75.3195 127.371 77.8078C132.341 80.0341 135.137 85.7227 133.903 91.0136L133.641 91.6006L122.223 88.738L112.383 82.2525L112.645 81.6655Z" fill="#FFC200"/><path d="M122.932 81.557C122.025 81.4675 121.289 80.68 121.379 79.7697C121.469 78.8594 122.254 78.1199 123.161 78.2093C125.387 78.3269 127.333 79.2337 128.916 80.7175C129.561 81.394 129.562 82.4153 128.989 83.0736C128.415 83.7319 127.297 83.7237 126.641 83.1484C125.512 82.22 124.343 81.6961 122.932 81.557Z" fill="#FFDE00"/><path fill-rule="evenodd" clip-rule="evenodd" d="M109.215 45.2766C117.409 48.8424 121.237 58.5135 117.568 66.8322L113.617 75.9402C110.058 84.1677 100.42 88.0168 92.1343 84.3399C83.9396 80.774 80.1118 71.1029 83.7813 62.7842L87.7321 53.6762C91.3916 45.4587 101.03 41.6096 109.215 45.2766Z" fill="white"/><path fill-rule="evenodd" clip-rule="evenodd" d="M107.864 54.8453C111.764 56.5577 113.552 61.1255 111.853 64.9408L108.445 72.6726C106.736 76.589 102.184 78.3867 98.3836 76.6842C94.4828 74.9717 92.6951 70.4039 94.3941 66.5886L97.8022 58.8569C99.4105 54.9305 103.963 53.1328 107.864 54.8453Z" fill="#122431"/><path d="M99.6081 61.1797C102.279 61.4432 104.659 59.4832 104.924 56.802C105.188 54.1208 103.237 51.7336 100.566 51.4701C97.8948 51.2065 95.5149 53.1665 95.2504 55.8477C94.9859 58.5289 96.9369 60.9161 99.6081 61.1797Z" fill="white"/><path fill-rule="evenodd" clip-rule="evenodd" d="M162.072 68.4654C170.267 72.0312 174.095 81.7023 170.426 90.021L166.475 99.129C162.916 107.357 153.278 111.206 144.992 107.529C136.707 103.852 132.969 94.2917 136.639 85.973L140.59 76.865C144.249 68.6475 153.787 64.7884 162.072 68.4654Z" fill="white"/><path fill-rule="evenodd" clip-rule="evenodd" d="M155.934 76.0299C159.835 77.7423 161.622 82.3101 159.923 86.1254L156.515 93.8572C154.806 97.7736 150.254 99.5713 146.454 97.8688C142.553 96.1563 140.765 91.5885 142.464 87.7732L145.872 80.0414C147.591 76.0239 152.134 74.3273 155.934 76.0299Z" fill="#122431"/><path d="M146.912 81.8801C149.583 82.1436 151.963 80.1837 152.227 77.5025C152.492 74.8212 150.541 72.434 147.87 72.1705C145.198 71.907 142.819 73.8669 142.554 76.5482C142.29 79.2294 144.241 81.6166 146.912 81.8801Z" fill="white"/><path d="M83.1231 59.1448C91.5113 64.8744 100.214 72.5754 109.22 82.3489L101.379 89.6433C99.6977 91.2136 97.0579 91.1574 95.3938 89.4613C89.4938 83.2623 85.1979 79.3662 79.8845 75.4719C78.4628 74.4125 77.9271 72.6235 78.4898 71.045L83.1231 59.1448Z" fill="#8EE000"/><path d="M169.304 97.2634L166.167 104.307C164.337 108.416 160.037 110.749 155.624 110.109C150.414 109.289 144.963 108.853 137.95 108.774C136.016 108.788 134.443 107.203 134.531 105.271L134.541 93.8339C147.87 93.8213 159.458 94.9644 169.304 97.2634Z" fill="#8EE000"/><path opacity="0.3929" fill-rule="evenodd" clip-rule="evenodd" d="M118.241 22.8823C127.862 22.2996 137.929 24.4161 148.755 29.1606C159.389 33.7841 167.747 39.8171 173.729 47.2497C182.888 58.5702 185.029 73.9981 179.138 87.3061L171.527 104.632C169.698 108.74 165.942 111.74 161.49 112.526C145.745 115.365 130.076 113.308 114.372 106.448C98.7685 99.5984 86.7489 89.4255 78.3029 76.0308C75.9315 72.2224 75.5844 67.4904 77.3134 63.3717L84.9238 46.0461C90.9258 32.647 103.713 23.6958 118.241 22.8823Z" fill="#98DDFF"/><path d="M116.893 45.8298C121.901 46.3239 126.363 42.649 126.859 37.6217C127.355 32.5944 123.697 28.1184 118.689 27.6243C113.68 27.1302 109.218 30.8051 108.722 35.8324C108.226 40.8597 111.884 45.3357 116.893 45.8298Z" fill="white"/><path d="M139.621 116.599C130.653 115.714 121.734 113.302 112.954 109.474C96.7664 102.363 84.0914 91.6144 75.403 77.583C72.5069 72.9058 72.068 67.0414 74.2998 61.951L81.7994 44.7166C88.2335 30.0324 102.108 20.3716 117.956 19.5861C127.879 19.0332 138.551 21.2094 149.568 26.0749C160.585 30.9405 169.418 37.3266 175.783 45.0012C185.96 57.3413 188.274 74.114 181.95 88.707L174.451 105.941C172.209 111.133 167.578 114.761 162.088 115.751C154.633 117.058 147.077 117.334 139.621 116.599ZM126.372 22.9695C123.551 22.6912 120.81 22.6251 118.15 22.7712C103.421 23.5649 90.6438 32.4149 84.7325 45.9251L77.2329 63.1595C75.4031 67.2682 75.7502 72.0003 78.1216 75.8087C86.4568 89.2946 98.668 99.5885 114.271 106.438C129.874 113.288 145.755 115.263 161.5 112.425C165.953 111.639 169.607 108.629 171.437 104.521L178.937 87.2862C184.848 73.776 182.707 58.348 173.245 46.9977C167.254 39.6663 158.795 33.6233 148.161 28.9999C140.752 25.7158 133.325 23.6554 126.372 22.9695Z" fill="white"/></svg>