<svg width="193" height="194" viewBox="0 0 193 194" fill="none" xmlns="http://www.w3.org/2000/svg"><path fill-rule="evenodd" clip-rule="evenodd" d="M114.152 23.4339C107.636 12.0432 91.3675 10.4307 83.3912 20.8516L47.9518 67.1526L12.5377 90.1215C8.7673 92.5669 8.48484 97.9578 11.9798 100.768C19.365 106.706 28.1455 110.28 37.2465 111.394C39.6681 124.497 46.7675 136.782 58.1822 145.519C79.4063 161.764 108.573 160.405 128.143 143.773C148.079 150.962 170.302 145.147 183.841 129.376C186.762 125.973 185.497 120.725 181.343 119.011L156.52 108.774L171.94 88.6278C179.916 78.2068 174.111 62.9244 161.414 59.6084C149.574 56.5162 137.345 52.623 132.263 48.7329C127.181 44.8429 120.229 34.0557 114.152 23.4339Z" fill="url(#paint0_radial_466_46647)"/><rect x="88.0391" y="36.1107" width="31.119" height="39.8713" rx="15.5595" transform="rotate(37.4309 88.0391 36.1107)" fill="#C7FFFE"/><rect x="131.026" y="69.0146" width="31.119" height="39.8713" rx="15.5595" transform="rotate(37.4309 131.026 69.0146)" fill="#C7FFFE"/><mask id="mask0_466_46647" style="mask-type:alpha" maskUnits="userSpaceOnUse" x="113" y="75" width="37" height="39"><rect x="131.03" y="69.015" width="31.119" height="39.8713" rx="15.5595" transform="rotate(37.4309 131.03 69.015)" fill="#C7FFFE"/></mask><g mask="url(#mask0_466_46647)"><path opacity="0.7" fill-rule="evenodd" clip-rule="evenodd" d="M121.618 87.1703C124.177 89.129 127.839 88.6423 129.797 86.0834C130.438 85.2469 130.817 84.2924 130.947 83.3182C131.641 83.5663 132.309 83.9246 132.925 84.3965C136.124 86.8448 136.732 91.4226 134.284 94.6213L129.556 100.799C127.107 103.998 122.53 104.606 119.331 102.158C116.132 99.7094 115.524 95.1317 117.972 91.933L121.618 87.1703Z" fill="#0000FF"/></g><mask id="mask1_466_46647" style="mask-type:alpha" maskUnits="userSpaceOnUse" x="70" y="42" width="37" height="39"><rect x="88.0391" y="36.1102" width="31.119" height="39.8713" rx="15.5595" transform="rotate(37.4309 88.0391 36.1102)" fill="#C7FFFE"/></mask><g mask="url(#mask1_466_46647)"><path opacity="0.7" fill-rule="evenodd" clip-rule="evenodd" d="M86.097 59.9812C88.6559 61.9398 92.3181 61.4532 94.2768 58.8942C94.9306 58.04 95.3119 57.0629 95.4346 56.0672C96.0659 56.3115 96.6734 56.6484 97.238 57.0805C100.437 59.5288 101.045 64.1066 98.5966 67.3052L93.8681 73.483C91.4198 76.6817 86.842 77.29 83.6433 74.8417C80.4447 72.3934 79.8364 67.8156 82.2847 64.617L85.9327 59.8508C85.9865 59.8951 86.0412 59.9385 86.097 59.9812Z" fill="#0000FF"/></g><path fill-rule="evenodd" clip-rule="evenodd" d="M108.554 84.9689C105.218 83.7521 100.856 84.0103 94.6282 86.6632L92.0481 83.8505C91.8038 83.5841 91.8237 83.1677 92.1064 82.9427C96.1777 79.7029 102.076 79.5098 106.395 82.8158C107.225 83.4514 107.946 84.1772 108.554 84.9689Z" fill="#9BFBFA"/><path d="M92.3135 84.301L100.205 90.3416L108.346 96.5726" stroke="#1C5CFF" stroke-width="2.92101" stroke-linecap="round"/><path d="M95.417 88.5339L103.415 94.656L100.967 97.8554C99.276 100.064 96.115 100.484 93.9063 98.7935C91.6976 97.103 91.2776 93.942 92.9682 91.7333L95.417 88.5339Z" fill="#1C5CFF"/><path d="M94.7051 86.1506L93.5453 85.2629L92.6576 86.4227L88.9844 91.2217C86.1273 94.9544 86.8372 100.296 90.5699 103.153C94.3026 106.011 99.6446 105.301 102.502 101.568L106.175 96.769L107.063 95.6092L105.903 94.7215L94.7051 86.1506ZM92.9036 94.2215L94.4647 92.1819L100.144 96.5286L98.5824 98.5682C97.3821 100.136 95.1379 100.435 93.5697 99.2343C92.0015 98.034 91.7033 95.7897 92.9036 94.2215Z" stroke="#1C5CFF" stroke-width="2.92101"/><path d="M153.294 63.1593L132.947 67.077C130.729 67.3525 125.444 67.2532 122.046 64.6525" stroke="#9BFBFA" stroke-width="3.24157" stroke-linecap="round"/><path d="M160.62 72.8506C160.219 72.4414 159.176 72.0309 158.161 72.397C157.146 72.7631 154.976 73.2249 154.018 73.41" stroke="#9BFBFA" stroke-width="3.24157" stroke-linecap="round"/><path d="M109.868 29.4627C108.18 29.7352 105.146 30.7982 103.373 33.1149" stroke="#9BFBFA" stroke-width="3.24157" stroke-linecap="round"/><path d="M99.9919 27.1092C98.1101 27.383 93.8194 28.8814 91.7105 32.6853" stroke="#9BFBFA" stroke-width="3.24157" stroke-linecap="round"/><path d="M91.5759 32.8609C87.163 33.2931 77.4162 35.4939 73.7332 40.8391" stroke="#9BFBFA" stroke-width="3.24157" stroke-linecap="round"/><path opacity="0.4" d="M157.467 85.4399C159.013 95.686 157.908 98.3301 150.618 107.854C150.618 107.854 148.431 110.711 144.215 116.22C138.944 123.106 123.32 124.719 115.018 118.365C110.456 114.873 107.67 110.365 106.218 106.95" stroke="#0818FF" stroke-width="2.91741" stroke-linecap="round"/><path opacity="0.81" d="M64.9834 52.0028C56.8069 62.6853 61.6208 77.5957 69.8578 83.9005C74.3812 87.3627 79.67 88.6859 83.6039 89.0528" stroke="#2A59FF" stroke-width="2.91741" stroke-linecap="round"/><g style="mix-blend-mode:overlay"><path d="M67.6155 101.416L78.7618 109.941C79.3593 110.398 79.3593 111.275 78.7619 111.673C75.8915 113.585 71.9428 113.401 68.9979 111.149C66.0531 108.897 64.8446 105.136 65.9424 101.868C66.1709 101.188 67.0181 100.959 67.6155 101.416Z" fill="#204AFF"/></g><g style="mix-blend-mode:overlay"><path d="M87.0608 116.301L98.2071 124.826C98.8046 125.283 98.8046 126.16 98.2072 126.558C95.3368 128.47 91.3881 128.286 88.4433 126.034C85.4984 123.781 84.2899 120.021 85.3877 116.753C85.6162 116.073 86.4634 115.844 87.0608 116.301Z" fill="#204AFF"/></g><g style="mix-blend-mode:overlay"><path d="M70.1409 118.265L81.2872 126.79C81.8846 127.247 81.8847 128.124 81.2873 128.522C78.4169 130.434 74.4682 130.251 71.5233 127.998C68.5785 125.746 67.37 121.985 68.4678 118.717C68.6963 118.037 69.5434 117.808 70.1409 118.265Z" fill="#204AFF"/></g><defs><radialGradient id="paint0_radial_466_46647" cx="0" cy="0" r="1" gradientUnits="userSpaceOnUse" gradientTransform="translate(100.238 41.3031) rotate(98.7435) scale(130.614 184.451)"><stop stop-color="#00FF38"/><stop offset="0.523569" stop-color="#268AFF"/><stop offset="1" stop-color="#FC55FF"/></radialGradient></defs></svg>