<svg viewBox="0 0 326 338" fill="none" xmlns="http://www.w3.org/2000/svg"><g clip-path="url(#clip0)"><g clip-path="url(#clip1)"><path d="M79.1416 192.125C82.9214 189.787 88.0059 190.929 90.3404 194.78L90.3991 194.883L97.1899 205.943C99.5244 209.793 98.3091 214.832 94.4484 217.148C90.5876 219.463 85.5253 218.24 83.1908 214.39L76.4 203.33C74.0655 199.479 75.2808 194.441 79.1416 192.125Z" fill="#F49000"/><path d="M217.613 230.312C219.741 234.279 218.202 239.229 214.224 241.338L202.724 247.354C198.746 249.464 193.772 247.919 191.644 243.952C189.516 239.985 191.055 235.036 195.033 232.926L206.533 226.91C210.511 224.8 215.404 226.323 217.554 230.209C217.554 230.209 217.532 230.29 217.613 230.312Z" fill="#F49000"/><path d="M81.7176 93.4213L165.039 140.234C168.658 142.272 169.939 146.785 167.982 150.406C167.598 151.167 167.074 151.802 166.389 152.393C148.255 168.887 121.081 172.054 99.0704 159.657C77.3167 147.591 65.7708 122.826 70.6461 98.5153C71.5139 94.421 75.4414 91.8638 79.5768 92.6576C80.3274 92.7779 81.0336 93.0593 81.7176 93.4213Z" fill="#58CC02"/><path d="M265.916 144.218C270.067 144.323 273.389 147.753 273.294 151.887C273.256 152.656 273.115 153.484 272.915 154.209C264.559 177.56 242.055 192.849 217.169 192.14C191.916 191.503 170.184 174.936 163.089 151.398C161.815 147.493 164.008 143.33 167.926 142.071C168.706 141.766 169.605 141.667 170.458 141.729L265.916 144.218Z" fill="#58CC02"/><path d="M225.058 90.9139C222.285 90.2356 219.377 90.0406 216.521 90.2929C198.896 92.6262 187.545 93.0495 181.452 91.4562C175.405 89.7018 165.875 83.5202 151.937 72.4827C149.555 70.6991 146.936 69.4569 144.126 68.5952C132.715 65.4483 120.934 72.1669 117.802 83.524L100.276 147.076C90.9916 180.744 110.817 215.594 144.521 225.061C178.395 234.23 213.2 214.445 222.484 180.777L240.01 117.225C243.142 105.868 236.47 94.0608 225.058 90.9139Z" fill="#58CC02"/><path d="M177.645 187.655L162.268 183.415C161.621 183.236 160.899 183.644 160.721 184.288C160.699 184.369 160.654 184.53 160.713 184.633C161.089 188.637 163.903 192.013 167.891 193.026C172.019 194.164 176.349 192.671 178.518 189.543C178.858 188.943 178.712 188.209 178.109 187.87C177.888 187.722 177.807 187.7 177.645 187.655ZM151.487 182.088C151.826 181.489 151.68 180.755 151.158 180.438C151.019 180.312 150.938 180.29 150.776 180.245L135.399 176.005C134.773 175.746 134.177 176.015 133.918 176.637C133.874 176.798 133.807 177.039 133.844 177.223C134.198 181.307 137.115 184.625 141.022 185.616C144.987 186.71 149.296 185.298 151.487 182.088ZM160.531 196.977L145.154 192.736C144.507 192.557 143.807 192.885 143.629 193.529C143.585 193.69 143.563 193.771 143.599 193.954C143.953 198.039 146.87 201.356 150.777 202.347C154.905 203.485 159.213 202.073 161.323 198.842C161.663 198.242 161.517 197.508 160.995 197.191C160.855 197.066 160.693 197.021 160.531 196.977Z" fill="#89E219"/><path d="M154.25 84.9101L167.172 110.055C167.737 111.164 167.256 112.592 166.085 113.049C165.879 113.165 165.695 113.201 165.511 113.237C156.197 114.482 147.552 107.938 146.278 98.6594C145.543 93.4297 147.333 88.2029 151.064 84.4647C152.332 83.3409 153.671 83.5369 154.25 84.9101Z" fill="#89E219"/><path d="M143.797 87.1403L156.395 112.196C156.96 113.305 156.479 114.733 155.308 115.19C155.102 115.306 154.918 115.342 154.734 115.378C145.42 116.623 136.856 110.101 135.583 100.823C134.848 95.5931 136.637 90.3662 140.287 86.6057C141.12 85.7954 142.526 85.7497 143.342 86.5814C143.562 86.7289 143.68 86.9346 143.797 87.1403Z" fill="#89E219"/><path d="M148.181 93.0299L149.962 93.5209C162.587 97.0026 170.067 109.986 166.602 122.551L166.58 122.632L162.515 137.372C159.05 149.937 146.031 157.355 133.406 153.873L133.325 153.851L131.544 153.36C118.919 149.878 111.439 136.895 114.904 124.329L114.926 124.249L118.991 109.509C122.456 96.9432 135.556 89.5482 148.181 93.0299Z" fill="#89E219"/><path d="M207.989 99.7296C209.249 98.9503 210.522 99.388 210.976 100.9C213.25 110.021 207.663 119.228 198.51 121.471C193.37 122.74 187.94 121.589 183.72 118.259C182.743 117.382 182.694 115.982 183.468 115.069C183.593 114.93 183.719 114.791 183.925 114.675L207.989 99.7296Z" fill="#89E219"/><path d="M215.827 107.004C216.8 106.319 218.198 106.618 218.807 107.566C218.925 107.772 219.042 107.977 219.137 108.264C221.412 117.385 215.825 126.591 206.672 128.834C201.532 130.104 196.101 128.953 191.882 125.622C190.904 124.746 190.855 123.346 191.629 122.432C191.755 122.294 191.88 122.155 192.086 122.038L215.827 107.004Z" fill="#89E219"/><path d="M209.044 109.813C221.669 113.295 229.127 126.359 225.662 138.924L221.597 153.665C218.132 166.23 205.113 173.647 192.488 170.166L192.407 170.143L190.626 169.652C178.001 166.171 170.521 153.187 173.986 140.622L174.008 140.541L178.073 125.801C181.538 113.236 194.557 105.818 207.182 109.3L207.263 109.322L209.044 109.813" fill="#89E219"/><path d="M188.456 111.849C180.506 116.677 170.138 114.165 165.271 106.235C165.095 105.927 164.919 105.618 164.742 105.31C160.538 119.924 156.94 132.973 153.925 144.536L165.763 147.714L177.557 151.053C180.977 139.602 184.597 126.473 188.456 111.849Z" fill="#89E219"/><path d="M146.066 101.635C155.373 104.201 160.834 113.768 158.279 123.031L155.503 133.099C152.706 142.295 142.996 147.505 133.836 144.719C124.897 142.08 119.612 132.822 121.916 123.837L124.692 113.769C127.225 104.586 136.736 99.1487 145.985 101.612L146.066 101.635Z" fill="white"/><path d="M145.766 111.867C150.218 113.095 152.801 117.621 151.58 122.051L149.181 130.75C147.797 135.135 143.222 137.514 138.793 136.206C134.629 134.884 132.163 130.564 133.156 126.331L135.555 117.632C136.835 113.305 141.374 110.743 145.766 111.867Z" fill="#4B4B4B"/><path d="M139.264 109.554C142.097 110.335 143.66 113.193 142.905 115.931C142.149 118.67 139.261 120.3 136.51 119.542C133.758 118.783 132.114 115.903 132.869 113.164C133.624 110.425 136.431 108.773 139.183 109.531L139.264 109.554Z" fill="white"/><path d="M206.444 118.285C215.752 120.851 221.213 130.418 218.658 139.681L215.882 149.749C213.084 158.945 203.375 164.154 194.215 161.368C185.276 158.73 179.991 149.472 182.295 140.487L185.071 130.418C187.603 121.236 197.115 115.798 206.363 118.262C206.363 118.262 206.363 118.262 206.444 118.285Z" fill="white"/><path d="M201.454 127.222C205.905 128.45 208.489 132.976 207.267 137.406L204.868 146.105C203.485 150.491 198.91 152.869 194.481 151.561C190.317 150.239 187.85 145.919 188.843 141.686L191.242 132.987C192.523 128.66 197.061 126.098 201.454 127.222Z" fill="#4B4B4B"/><path d="M193.981 124.641C196.814 125.422 198.377 128.28 197.622 131.019C196.866 133.757 193.978 135.388 191.227 134.629C188.475 133.87 186.831 130.99 187.586 128.251C188.238 125.571 191.045 123.918 193.981 124.641C193.9 124.619 193.9 124.619 193.981 124.641Z" fill="white"/><path d="M180.493 148.917C194.606 147.002 207.202 146.488 217.851 147.345C217.851 147.345 215.054 165.382 200.649 165.829C182.187 166.459 180.493 148.917 180.493 148.917ZM126.735 145.533C114.514 137.743 121.438 120.844 121.438 120.844C131.044 125.487 141.654 132.486 152.711 141.342C152.733 141.262 142.287 155.456 126.735 145.533Z" fill="#89E219"/><path d="M169.264 135.332C174.039 136.649 176.858 141.586 175.628 146.361C175.628 146.361 175.628 146.361 175.606 146.441L171.63 160.859C170.319 165.612 165.346 168.487 160.49 167.148C155.715 165.831 152.816 160.871 154.148 156.039L158.125 141.621C159.516 136.891 164.467 134.096 169.264 135.332Z" fill="#F49000"/><path d="M168.331 138.715C172.054 139.742 174.226 143.548 173.204 147.253L170.561 156.838C169.539 160.543 165.723 162.698 162 161.671C158.277 160.644 156.186 156.861 157.126 153.133L159.77 143.548C160.769 139.923 164.586 137.769 168.331 138.715Z" fill="#B66E28"/><path d="M166.464 145.481L178.651 146.762C178.916 146.748 179.122 146.632 179.108 146.368C179.797 139.45 174.625 133.257 167.655 132.635C162.393 132.137 157.339 134.991 155.071 139.739C155.005 139.981 155.1 140.267 155.262 140.312L166.464 145.481Z" fill="#FFC200"/><path d="M171.064 139.21C170.902 139.165 170.74 139.121 170.601 138.995C169.255 138.191 167.798 137.789 166.23 137.79C165.192 137.764 164.48 136.874 164.504 135.841C164.586 134.91 165.316 134.158 166.192 134.139C168.452 134.156 170.637 134.758 172.505 135.88C173.409 136.39 173.606 137.571 173.119 138.39C172.676 139.048 171.873 139.433 171.064 139.21Z" fill="#FFDE00"/></g></g><path opacity="0.3" d="M98.4667 286.025C95.6744 286.025 93.4805 283.822 93.4805 281.018C93.4805 278.214 95.6744 276.011 98.4667 276.011H205.372C208.165 276.011 210.359 278.214 210.359 281.018C210.359 283.822 208.165 286.025 205.372 286.025H98.4667Z" fill="#58A700"/><defs><clipPath id="clip0"><rect width="254.404" height="254.404" fill="white" transform="translate(74.6328) rotate(15.4172)"/></clipPath><clipPath id="clip1"><rect width="209.884" height="159.003" fill="white" transform="translate(83.4219 51.8563) rotate(15.4172)"/></clipPath></defs></svg>