<svg width="181" height="203" viewBox="0 0 181 203" fill="none" xmlns="http://www.w3.org/2000/svg"><g clip-path="url(#clip0_534_36870)"><path d="M-37.942 57.8678C-41.5077 57.9318 -44.3816 60.8562 -44.3259 64.4071C-44.298 65.0682 -44.1819 65.78 -44.0148 66.4038C-36.9854 86.5094 -17.7545 99.7798 3.62123 99.3266C25.3127 98.9374 44.0791 84.8459 50.3189 64.6763C51.4379 61.3307 49.5807 57.7425 46.2239 56.6362C45.5553 56.3696 44.7846 56.279 44.051 56.327L-37.942 57.8678Z" fill="#58CC02"/><path d="M51.2293 31.9851C53.044 33.6347 54.5786 35.6112 55.7702 37.7663C62.5708 51.4371 67.7189 59.7231 71.7783 63.2962C75.9311 66.7603 84.908 70.5783 99.4593 75.2043C101.873 76.0441 104.015 77.3123 105.977 78.8998C113.697 85.5148 114.569 97.1291 107.985 104.812L71.1457 147.802C51.6287 170.578 17.2955 173.192 -5.62785 153.738C-28.4192 134.018 -31.0409 99.737 -11.524 76.9612L25.3155 33.9706C31.899 26.2879 43.5098 25.3701 51.2293 31.9851Z" fill="#58CC02"/><path d="M118.755 143.006L39.8694 103.36C36.44 101.641 32.3214 102.991 30.5584 106.36C30.174 107.047 29.9575 107.776 29.8589 108.606C26.5902 131.014 38.1975 153.463 59.0598 163.92C79.5358 174.351 104.467 170.405 120.57 154.116C123.258 151.337 123.189 147.008 120.445 144.251C119.965 143.738 119.385 143.342 118.755 143.006Z" fill="#58CC02"/><path d="M5.10164 112.187L15.5038 121.1C15.9418 121.476 15.9982 122.186 15.6246 122.621C15.5779 122.676 15.4846 122.785 15.3831 122.792C12.3513 124.447 8.59638 124.064 5.96042 121.711C3.16826 119.318 2.15202 115.518 3.33852 112.471C3.60256 111.942 4.19508 111.693 4.72645 111.96C4.93738 112.046 4.99214 112.093 5.10164 112.187ZM21.6244 128.141C21.8884 127.611 22.481 127.363 22.9576 127.582C23.1138 127.622 23.1685 127.668 23.278 127.762L33.6802 136.676C34.1649 136.997 34.2599 137.551 33.9411 138.034C33.8477 138.143 33.7076 138.306 33.5595 138.368C30.481 140.077 26.718 139.593 24.1368 137.287C21.4541 134.988 20.3912 131.242 21.6244 128.141ZM6.68058 128.848L17.0827 137.762C17.5207 138.137 17.6238 138.793 17.2503 139.229C17.1569 139.338 17.1102 139.392 16.9621 139.454C13.8836 141.163 10.1206 140.679 7.53936 138.373C4.74721 135.98 3.68427 132.234 4.97222 129.18C5.23625 128.65 5.82878 128.402 6.3054 128.621C6.46158 128.661 6.57109 128.755 6.68058 128.848Z" fill="#89E219"/><path d="M89.4964 79.5185L65.3877 82.3893C64.3266 82.5195 63.5409 83.5472 63.7776 84.6006C63.7938 84.8034 63.8566 84.9517 63.9194 85.1C67.504 92.3297 76.315 95.344 83.5331 91.7961C87.6099 89.8087 90.4725 86.0248 91.3434 81.5737C91.5349 80.1313 90.7523 79.2717 89.4964 79.5185Z" fill="#89E219"/><path d="M92.9289 88.0347L69.0392 91.0932C67.9781 91.2234 67.1924 92.2511 67.4291 93.3045C67.4452 93.5073 67.5081 93.6556 67.5709 93.8039C71.1555 101.034 79.9117 104.001 87.1298 100.453C91.2066 98.4657 94.0693 94.6818 94.9949 90.2776C95.1719 89.2953 94.5294 88.2723 93.5456 88.0907C93.3346 88.0045 93.1318 88.0196 92.9289 88.0347Z" fill="#89E219"/><path d="M86.6293 87.7399L85.4249 86.7077C76.8842 79.389 64.048 80.2963 56.7642 88.7963L56.7175 88.8508L48.173 98.822C40.8891 107.322 41.8576 120.153 50.3983 127.472L50.453 127.519L51.6575 128.551C60.1982 135.87 73.0343 134.962 80.3182 126.462L80.3649 126.408L88.9094 116.437C96.1932 107.937 95.17 95.0586 86.6293 87.7399Z" fill="#89E219"/><path d="M53.1439 48.3671C53.0939 47.0958 52.1713 46.3996 50.8767 46.8023C43.2898 49.5617 39.4163 57.9602 42.2136 65.5547C43.7773 69.8241 47.2039 73.1384 51.6013 74.5442C52.6946 74.8196 53.7154 74.1824 53.9939 73.1925C54.0326 73.0366 54.0712 72.8807 54.0551 72.6779L53.1439 48.3671Z" fill="#89E219"/><path d="M44.2025 46.2805C44.2234 45.2589 43.3394 44.4068 42.3717 44.4281C42.1688 44.4432 41.9659 44.4584 41.7164 44.528C34.1294 47.2875 30.2559 55.6859 33.0532 63.2804C34.6169 67.5498 38.0435 70.8641 42.441 72.2699C43.5343 72.5453 44.5551 71.9081 44.8336 70.9183C44.8722 70.7624 44.9109 70.6065 44.8947 70.4037L44.2025 46.2805Z" fill="#89E219"/><path d="M45.459 52.4602C36.9183 45.1415 24.0355 46.1032 16.7517 54.6033L8.20716 64.5745C0.923307 73.0745 1.89177 85.9057 10.4325 93.2244L10.4872 93.2713L11.6917 94.3034C20.2324 101.622 33.0685 100.715 40.3524 92.2148L40.3991 92.1603L48.9436 82.1891C56.2274 73.6891 55.259 60.8579 46.7183 53.5392L46.6635 53.4923L45.459 52.4602Z" fill="#89E219"/><path d="M53.8952 68.0997C54.2741 76.0788 61.0403 82.2549 69.0235 81.9139C69.3278 81.8912 69.6321 81.8685 69.9364 81.8458C61.5481 91.8563 53.9841 100.683 47.1977 108.381L39.2512 101.477L31.2113 94.6821C37.7239 86.7496 45.3346 77.8682 53.8952 68.0997Z" fill="#89E219"/><path d="M81.5153 93.3747C75.2193 87.9795 65.7854 88.6838 60.4159 94.9498L54.5794 101.761C49.3742 108.168 50.3263 117.583 56.7077 122.768C62.8781 127.866 72.0077 127.185 77.2999 121.23L83.1363 114.419C88.4592 108.208 87.7646 98.8244 81.57 93.4216L81.5153 93.3747Z" fill="white"/><path d="M74.3709 98.4979C71.3598 95.9176 66.8965 96.2508 64.3284 99.2476L59.2858 105.132C56.8272 108.223 57.3299 112.623 60.3877 115.148C63.328 117.479 67.5885 117.161 70.1259 114.421L75.1686 108.537C77.6352 105.547 77.2807 101.086 74.3709 98.4979Z" fill="#4B4B4B"/><path d="M77.1403 102.018C75.2241 100.376 72.4385 100.635 70.851 102.488C69.2635 104.34 69.4891 107.18 71.3506 108.775C73.212 110.37 76.0523 110.158 77.6398 108.305C79.2273 106.453 79.0565 103.66 77.195 102.065L77.1403 102.018Z" fill="white"/><path d="M40.6735 58.3764C34.3774 52.9812 24.9436 53.6855 19.5741 59.9516L13.7376 66.7625C8.53239 73.1693 9.48455 82.5846 15.8659 87.7694C22.0363 92.8679 31.1659 92.1864 36.4581 86.2321L42.2945 79.4212C47.6174 73.2096 46.9228 63.8261 40.7282 58.4233C40.7282 58.4233 40.7282 58.4233 40.6735 58.3764Z" fill="white"/><path d="M36.7049 66.2208C33.6938 63.6405 29.2305 63.9737 26.6624 66.9705L21.6198 72.8551C19.1612 75.9458 19.6639 80.3454 22.7217 82.8712C25.662 85.2018 29.9224 84.8838 32.4599 82.1443L37.5026 76.2596C39.9691 73.2704 39.6146 68.8087 36.7049 66.2208Z" fill="#4B4B4B"/><path d="M40.0915 69.565C38.1753 67.923 35.3897 68.1819 33.8022 70.0345C32.2147 71.8871 32.4403 74.7264 34.3017 76.3215C36.1632 77.9166 39.0035 77.7045 40.591 75.8519C42.1865 74.1008 42.0157 71.3084 40.0915 69.565C40.1462 69.6119 40.1462 69.6119 40.0915 69.565Z" fill="white"/><path d="M31.3207 91.5629C25.9083 80.5935 20.2272 71.3783 14.5042 64.2062C14.5042 64.2062 3.00351 74.8571 9.60095 85.33C18.0164 98.7783 31.3207 91.5629 31.3207 91.5629ZM59.5393 128.218C70.954 133.18 79.6626 120.136 79.6626 120.136C71.7452 115.525 61.6669 111.33 50.0527 107.709C50.0993 107.655 45.0073 121.907 59.5393 128.218Z" fill="#89E219"/><path d="M46.386 93.0393C43.1559 90.2713 38.2868 90.6348 35.4773 93.8027C35.4773 93.8027 35.4773 93.8027 35.4306 93.8571L27.0728 103.61C24.318 106.825 24.6581 111.747 27.943 114.562C31.1731 117.33 36.0969 117.013 38.8984 113.744L47.2562 103.991C49.9562 100.729 49.5695 95.8617 46.386 93.0393Z" fill="#F49000"/><path d="M44.4251 95.3274C41.9067 93.1693 38.1535 93.4495 36.0057 95.9559L30.4494 102.44C28.3016 104.946 28.5997 108.698 31.1181 110.856C33.6365 113.014 37.335 112.687 39.5376 110.228L45.0939 103.744C47.195 101.292 46.8969 97.54 44.4251 95.3274Z" fill="#B66E28"/><path d="M40.5033 99.9043L33.7402 91.8409C33.6227 91.6457 33.6065 91.4429 33.8014 91.3263C38.3965 87.5152 45.2896 88.2246 49.0786 92.8889C51.9594 96.397 52.3542 101.366 50.0615 105.26C49.9215 105.423 49.6719 105.493 49.5624 105.399L40.5033 99.9043Z" fill="#FFC200"/><path d="M42.7585 93.6156C42.868 93.7094 42.9775 93.8032 43.1337 93.8426C44.3527 94.4146 45.3381 95.2591 46.0901 96.376C46.607 97.1024 47.5828 97.1826 48.3073 96.6695C48.9304 96.1639 49.1155 95.2831 48.7081 94.6505C47.6115 93.0493 46.1333 91.7826 44.4378 90.9911C43.6407 90.5916 42.7053 91.0185 42.3559 91.7586C42.0999 92.3897 42.2111 93.1464 42.7585 93.6156Z" fill="#FFDE00"/><path opacity="0.35" d="M165.804 107.691C165.192 107.188 165.613 105.797 166.402 105.723C167.564 105.613 168.803 105.38 169.732 104.908C170.809 104.36 171.857 103.294 172.697 102.265C173.191 101.659 174.508 102.063 174.579 102.842C174.706 104.244 175.007 105.823 175.678 106.937C176.239 107.867 177.301 108.82 178.299 109.587C178.901 110.05 178.566 111.223 177.809 111.291C176.523 111.406 175.072 111.639 174.092 112.103C172.887 112.674 171.724 113.839 170.826 114.92C170.337 115.509 169.111 115.13 169.049 114.366C168.936 112.97 168.674 111.367 168.089 110.26C167.594 109.325 166.704 108.432 165.804 107.691Z" fill="#E7A601"/><path fill-rule="evenodd" clip-rule="evenodd" d="M116.645 87.3887L128.695 86.6512C129.573 86.5974 130.444 86.8368 131.171 87.3316L149.906 100.079C150.615 100.561 151.148 101.26 151.427 102.07L155.462 113.801C155.946 115.208 155.738 116.761 154.901 117.991L154.287 118.894C154.977 119.161 155.292 120.029 154.842 120.689L151.285 125.916L160.754 129.118C164.434 130.362 165.535 134.777 163.299 137.745C157.202 145.838 146.587 149.312 136.98 146.064C136.091 145.763 135.231 145.412 134.404 145.014C127.195 148.984 118.556 149.647 110.952 146.483C109.198 146.182 108.199 146.608 107.661 147.172L107.321 147.671C107.045 148.387 107.005 149.474 107.819 150.617L112.558 153.841C113.957 154.793 114.319 156.699 113.367 158.098C113.226 158.306 113.063 158.492 112.884 158.653L115.168 160.207C116.568 161.159 116.93 163.065 115.978 164.465C115.026 165.864 113.12 166.227 111.72 165.274L84.4086 146.692C83.0092 145.739 82.6466 143.833 83.5988 142.434C84.5509 141.034 86.4571 140.672 87.8565 141.624L90.6751 143.542C90.7595 143.316 90.8719 143.097 91.0135 142.889C91.9656 141.49 93.8719 141.127 95.2712 142.079L99.7746 145.143C101.222 145.393 102.191 144.722 102.632 144.128L102.731 143.983L102.737 143.973L102.737 143.974L102.843 143.818C103.17 143.222 103.288 142.323 102.718 141.078C96.5392 135.123 93.764 126.527 94.863 118.062C94.302 117.522 93.7638 116.948 93.2512 116.341C86.7106 108.596 86.0247 97.4242 91.2693 88.744C93.1916 85.5625 97.7047 84.9329 100.223 87.9151L106.671 95.5498L109.359 91.5991L110.261 90.2727C110.771 89.5236 111.895 89.587 112.317 90.3885L112.349 90.4485L113.032 89.4444C113.853 88.237 115.187 87.4779 116.645 87.3887ZM144.315 135.962C143.068 137.795 141.651 139.438 140.1 140.885C146.819 142.646 154.061 140.141 158.424 134.521L147.751 130.912L144.315 135.962ZM99.7877 105.666L103.246 100.583L96.0676 92.0834C92.5157 98.1731 92.8152 105.748 96.779 111.336C97.5522 109.383 98.553 107.481 99.7877 105.666Z" fill="#5C6CFC"/><path d="M119.563 115.36L98.0203 89.8508C96.8656 88.4835 94.6989 88.7068 93.7413 90.2918C89.14 97.907 89.7634 107.666 95.4548 114.406C101.146 121.145 110.49 123.189 118.517 119.63C120.188 118.889 120.717 116.727 119.563 115.36Z" stroke="#FFC123" stroke-width="5.86548"/><path d="M159.761 131.877L128.131 121.183C126.436 120.61 124.63 121.899 124.565 123.729C124.253 132.521 129.618 140.479 137.974 143.304C146.33 146.13 155.6 143.119 160.942 136.028C162.054 134.552 161.456 132.45 159.761 131.877Z" stroke="#FFC123" stroke-width="5.86548"/><path d="M128.695 86.6512L116.646 87.3887C115.188 87.478 113.854 88.237 113.032 89.4444L106.543 98.9818L148.44 127.488L154.902 117.991C155.739 116.761 155.947 115.208 155.463 113.801L151.427 102.07C151.149 101.26 150.615 100.561 149.906 100.079L131.171 87.3316C130.444 86.8368 129.573 86.5975 128.695 86.6512Z" fill="#E09015"/><path fill-rule="evenodd" clip-rule="evenodd" d="M109.359 91.599L110.261 90.2727C110.771 89.5236 111.895 89.5869 112.317 90.3885L118.903 102.89L132.127 106.039C132.411 106.107 132.661 106.276 132.83 106.515L140.775 117.771L153.944 118.816C154.863 118.889 155.361 119.927 154.842 120.689L149.312 128.817L149.166 128.834L144.315 135.962C135.616 148.748 118.596 152.331 106.3 143.965C94.0041 135.599 91.0885 118.452 99.7879 105.666L106.411 95.9322L109.359 91.599Z" fill="#FFC123"/><path d="M148.692 129.211L144.166 135.863C135.467 148.648 118.447 152.231 106.151 143.865C96.0414 136.986 92.2729 124.172 96.0874 112.726C98.4041 138.652 135.158 145.169 148.692 129.211Z" fill="#E09015"/><path d="M91.0138 142.889C91.9659 141.49 93.8722 141.127 95.2716 142.079L112.558 153.841C113.957 154.793 114.32 156.699 113.368 158.099C112.416 159.498 110.509 159.86 109.11 158.908L91.8236 147.147C90.4242 146.195 90.0617 144.288 91.0138 142.889Z" fill="#E09015"/><rect x="105.889" y="139.342" width="5.8699" height="13.1724" transform="rotate(34.2313 105.889 139.342)" fill="#E09015"/><path d="M97.5626 144.174C100.421 146.119 102.203 144.851 102.737 143.974L104.143 149.728L96.4952 148.442C95.6601 146.209 94.7045 142.229 97.5626 144.174Z" fill="#E09015"/><path d="M101.22 138.869C103.498 141.48 103.327 143.126 102.738 143.99L108.603 143.174L104.015 137.391C101.631 137.434 99.1696 136.519 101.22 138.869Z" fill="#E09015"/><path d="M112.764 146.974C109.499 145.814 108.031 146.578 107.443 147.442L106.049 141.687L113.697 142.973C114.532 145.206 115.703 148.019 112.764 146.974Z" fill="#E09015"/><path d="M109.397 152.1C106.539 150.156 106.982 147.976 107.602 147.157L101.816 148.019L105.819 154.66C108.203 154.617 112.256 154.045 109.397 152.1Z" fill="#E09015"/><path d="M116.588 89.4148L127.729 88.7425C128.488 88.6968 128.959 89.5526 128.514 90.1688L122.981 97.8399C122.633 98.3229 121.92 98.341 121.547 97.8762L115.939 90.8774C115.482 90.3072 115.858 89.4588 116.588 89.4148Z" fill="#F3A735"/><path d="M83.5988 142.434C84.5509 141.034 86.4572 140.672 87.8565 141.624L115.168 160.207C116.568 161.159 116.93 163.065 115.978 164.465C115.026 165.864 113.12 166.227 111.72 165.274L84.4086 146.692C83.0092 145.739 82.6467 143.833 83.5988 142.434Z" fill="#FFC123"/><path fill-rule="evenodd" clip-rule="evenodd" d="M105.642 154.12C108.671 159.766 116.664 160.102 120.261 154.8C122.042 152.175 122.237 148.75 120.738 145.955C117.709 140.309 109.715 139.973 106.118 145.275C104.337 147.9 104.142 151.325 105.642 154.12Z" fill="#58CC02"/></g><defs><clipPath id="clip0_534_36870"><rect width="181" height="203" fill="white"/></clipPath></defs></svg>