<svg width="220" height="200" viewBox="-20 -20 220 220" fill="none" xmlns="http://www.w3.org/2000/svg"><path fill-rule="evenodd" clip-rule="evenodd" d="M86.9644 15.9204C77.6684 6.65748 61.5527 9.40258 56.6147 21.5613L52.2762 32.2441L38.6489 9.13922C36.3659 5.26839 30.9919 4.75719 28.0357 8.12966C13.8323 24.3332 11.5389 48.2639 22.792 67.3434C25.6193 72.137 29.125 76.3248 33.1224 79.8338C24.3047 107.337 38.057 137.411 65.2568 148.458C86.3238 157.013 109.567 151.762 124.95 136.942C133.483 144.632 144.51 149.359 156.338 149.875C160.818 150.07 164.164 145.833 162.945 141.508L148.738 91.0772L159.93 63.5198C164.867 51.3611 155.229 38.1567 142.107 38.3151C129.871 38.4627 117.048 37.9404 111.118 35.5321C105.189 33.1239 95.6329 24.558 86.9644 15.9204Z" fill="url(#paint0_radial_7350_246119)"/><rect x="65.1328" y="35.0486" width="31.119" height="39.8713" rx="15.5595" transform="rotate(22.1032 65.1328 35.0486)" fill="#C7FFFE"/><rect x="115.285" y="55.4187" width="31.119" height="39.8713" rx="15.5595" transform="rotate(22.1032 115.285 55.4187)" fill="#C7FFFE"/><mask id="mask0_7350_246119" style="mask-type:alpha" maskUnits="userSpaceOnUse" x="104" y="60" width="36" height="40"><rect x="115.289" y="55.4187" width="31.119" height="39.8713" rx="15.5595" transform="rotate(22.1032 115.289 55.4187)" fill="#C7FFFE"/></mask><g mask="url(#mask0_7350_246119)"><path opacity="0.7" fill-rule="evenodd" clip-rule="evenodd" d="M111.011 75.4165C113.996 76.629 117.4 75.1916 118.612 72.2059C119.009 71.2298 119.122 70.2091 118.99 69.2348C119.725 69.2907 120.464 69.4598 121.183 69.7519C124.915 71.2676 126.712 75.5218 125.196 79.2538L122.269 86.4618C120.753 90.1939 116.499 91.9906 112.767 90.475C109.035 88.9593 107.238 84.7052 108.754 80.9731L111.011 75.4165Z" fill="#0000FF"/></g><mask id="mask1_7350_246119" style="mask-type:alpha" maskUnits="userSpaceOnUse" x="54" y="39" width="36" height="40"><rect x="65.1328" y="35.0476" width="31.119" height="39.8713" rx="15.5595" transform="rotate(22.1032 65.1328 35.0476)" fill="#C7FFFE"/></mask><g mask="url(#mask1_7350_246119)"><path opacity="0.7" fill-rule="evenodd" clip-rule="evenodd" d="M69.5686 58.5823C72.5543 59.7949 75.9576 58.3575 77.1701 55.3718C77.5749 54.3752 77.6844 53.332 77.5395 52.3393C78.2129 52.408 78.8878 52.5723 79.5466 52.8398C83.2786 54.3555 85.0754 58.6097 83.5597 62.3417L80.6324 69.5497C79.1167 73.2818 74.8625 75.0785 71.1305 73.5629C67.3984 72.0472 65.6017 67.793 67.1173 64.061L69.3758 58.5C69.4393 58.5285 69.5036 58.5559 69.5686 58.5823Z" fill="#0000FF"/></g><path fill-rule="evenodd" clip-rule="evenodd" d="M97.832 76.7462C94.2925 76.4549 90.154 77.8571 84.8496 82.0616L81.6177 80.0309C81.3117 79.8386 81.2207 79.4317 81.4339 79.1399C84.5039 74.9392 90.141 73.1939 95.1805 75.2406C96.1494 75.6341 97.0364 76.1434 97.832 76.7462Z" fill="#9BFBFA"/><path d="M81.9922 80.3943L91.2002 84.1339L100.698 87.9914" stroke="#1C5CFF" stroke-width="2.92101" stroke-linecap="round"/><path d="M86.1055 83.6567L95.4377 87.4468L93.9217 91.1796C92.8751 93.7566 89.9376 94.9973 87.3606 93.9507C84.7835 92.9041 83.5429 89.9666 84.5895 87.3896L86.1055 83.6567Z" fill="#1C5CFF"/><path d="M84.7878 81.547L83.4347 80.9974L82.8851 82.3506L80.6111 87.9499C78.8424 92.3051 80.9391 97.2695 85.2942 99.0382C89.6494 100.807 94.6138 98.7102 96.3825 94.355L98.6565 88.7557L99.2061 87.4026L97.8529 86.853L84.7878 81.547ZM85.1839 89.807L86.1503 87.4273L92.7762 90.1182L91.8097 92.4979C91.0667 94.3276 88.981 95.2085 87.1514 94.4654C85.3217 93.7223 84.4408 91.6367 85.1839 89.807Z" stroke="#1C5CFF" stroke-width="2.92101"/><path d="M135.216 43.8856L116.628 53.0427C114.561 53.8946 109.438 55.1959 105.474 53.5859" stroke="#9BFBFA" stroke-width="3.24157" stroke-linecap="round"/><path d="M144.843 51.2956C144.347 51.007 143.233 50.8868 142.351 51.5082C141.469 52.1296 139.498 53.1485 138.623 53.5804" stroke="#9BFBFA" stroke-width="3.24157" stroke-linecap="round"/><path d="M84.4249 22.8668C82.8686 23.576 80.2242 25.403 79.1265 28.106" stroke="#9BFBFA" stroke-width="3.24157" stroke-linecap="round"/><path d="M74.278 23.2081C72.5355 23.9695 68.7935 26.5489 67.7652 30.7749" stroke="#9BFBFA" stroke-width="3.24157" stroke-linecap="round"/><path d="M67.6846 30.9794C63.5429 32.5628 54.7246 37.2618 52.5855 43.3904" stroke="#9BFBFA" stroke-width="3.24157" stroke-linecap="round"/><path opacity="0.4" d="M145.128 64.2704C149.327 73.7432 148.96 76.5854 144.447 87.6978C144.447 87.6978 143.093 91.0315 140.483 97.4586C137.221 105.493 122.578 111.179 112.892 107.246C107.569 105.084 103.691 101.472 101.387 98.5623" stroke="#0818FF" stroke-width="2.91741" stroke-linecap="round"/><path opacity="0.81" d="M47.0977 56.4695C42.0358 68.9333 50.6198 82.0409 60.2305 85.944C65.5082 88.0874 70.9586 87.9655 74.8496 87.2794" stroke="#2A59FF" stroke-width="2.91741" stroke-linecap="round"/><g style="mix-blend-mode:overlay"><path d="M62.6971 103.429L75.7004 108.705C76.3974 108.988 76.6292 109.833 76.1583 110.375C73.8955 112.978 70.0386 113.845 66.6032 112.451C63.1677 111.057 61.0081 107.75 61.203 104.308C61.2436 103.591 62.0001 103.147 62.6971 103.429Z" fill="#204AFF"/></g><g style="mix-blend-mode:overlay"><path d="M85.3846 112.644L98.3879 117.92C99.0849 118.202 99.3167 119.048 98.8458 119.59C96.583 122.193 92.7261 123.059 89.2907 121.666C85.8552 120.272 83.6956 116.964 83.8905 113.523C83.9311 112.806 84.6876 112.361 85.3846 112.644Z" fill="#204AFF"/></g><g style="mix-blend-mode:overlay"><path d="M69.5838 119.012L82.5871 124.288C83.2841 124.571 83.516 125.416 83.045 125.958C80.7822 128.561 76.9254 129.428 73.4899 128.034C70.0544 126.64 67.8948 123.333 68.0897 119.891C68.1303 119.174 68.8868 118.73 69.5838 119.012Z" fill="#204AFF"/></g><defs><radialGradient id="paint0_radial_7350_246119" cx="0" cy="0" r="1" gradientUnits="userSpaceOnUse" gradientTransform="translate(78.2689 36.8323) rotate(83.4159) scale(130.614 184.45)"><stop stop-color="#00FF38"/><stop offset="0.523569" stop-color="#268AFF"/><stop offset="1" stop-color="#FC55FF"/></radialGradient></defs></svg>