<svg width="224" height="145" viewBox="0 0 224 145" fill="none" xmlns="http://www.w3.org/2000/svg"><g clip-path="url(#clip0)"><path d="M8.34647 31.8636C4.78075 31.9276 1.90683 34.852 1.96257 38.4028C1.99043 39.064 2.1065 39.7757 2.27365 40.3995C9.30307 60.5051 28.5339 73.7756 49.9097 73.3224C71.6011 72.9332 90.3675 58.8416 96.6074 38.6721C97.7263 35.3265 95.8691 31.7383 92.5123 30.632C91.8437 30.3654 91.073 30.2747 90.3395 30.3227L8.34647 31.8636Z" fill="#58CC02"/><path d="M97.5172 5.98115C99.3319 7.63074 100.867 9.60725 102.058 11.7624C108.859 25.4332 114.007 33.7192 118.066 37.2923C122.219 40.7564 131.196 44.5744 145.747 49.2003C148.161 50.0402 150.302 51.3083 152.265 52.8959C159.985 59.5109 160.857 71.1252 154.273 78.8079L117.434 121.799C97.9166 144.574 63.5834 147.188 40.66 127.734C17.8687 108.015 15.247 73.7331 34.7639 50.9573L71.6034 7.96669C78.1869 0.283956 89.7977 -0.633823 97.5172 5.98115Z" fill="#58CC02"/><path d="M165.042 117.002L86.1572 77.3564C82.7278 75.6374 78.6093 76.9872 76.8463 80.3556C76.4619 81.0426 76.2454 81.772 76.1467 82.6022C72.8781 105.01 84.4854 127.459 105.348 137.916C125.824 148.347 150.755 144.401 166.858 128.112C169.546 125.333 169.477 121.004 166.733 118.247C166.253 117.734 165.673 117.338 165.042 117.002Z" fill="#58CC02"/><path d="M51.3898 86.1826L61.792 95.0964C62.23 95.4717 62.2864 96.1815 61.9128 96.6174C61.8662 96.6719 61.7728 96.7809 61.6713 96.7885C58.6395 98.4428 54.8846 98.0601 52.2486 95.7068C49.4565 93.3142 48.4402 89.5139 49.6267 86.4672C49.8908 85.9375 50.4833 85.6892 51.0147 85.9556C51.2256 86.0418 51.2803 86.0888 51.3898 86.1826ZM67.9126 102.137C68.1767 101.607 68.7692 101.359 69.2458 101.578C69.402 101.618 69.4567 101.664 69.5662 101.758L79.9684 110.672C80.4531 110.993 80.5481 111.547 80.2293 112.03C80.1359 112.139 79.9959 112.302 79.8477 112.364C76.7692 114.073 73.0062 113.589 70.425 111.283C67.7424 108.984 66.6794 105.238 67.9126 102.137ZM52.9688 102.844L63.3709 111.758C63.8089 112.133 63.912 112.789 63.5385 113.225C63.4451 113.334 63.3984 113.388 63.2503 113.45C60.1718 115.159 56.4088 114.675 53.8276 112.369C51.0354 109.976 49.9725 106.23 51.2604 103.176C51.5245 102.646 52.117 102.398 52.5936 102.617C52.7498 102.657 52.8593 102.75 52.9688 102.844Z" fill="#89E219"/><path d="M135.784 53.5144L111.676 56.3853C110.614 56.5155 109.829 57.5432 110.065 58.5965C110.082 58.7993 110.144 58.9477 110.207 59.096C113.792 66.3256 122.603 69.34 129.821 65.792C133.898 63.8046 136.76 60.0208 137.631 55.5696C137.823 54.1273 137.04 53.2677 135.784 53.5144Z" fill="#89E219"/><path d="M139.217 62.0307L115.327 65.0892C114.266 65.2194 113.48 66.2471 113.717 67.3005C113.733 67.5033 113.796 67.6516 113.859 67.7999C117.443 75.0296 126.2 77.997 133.418 74.4491C137.494 72.4617 140.357 68.6778 141.283 64.2736C141.46 63.2913 140.817 62.2682 139.833 62.0867C139.622 62.0004 139.42 62.0156 139.217 62.0307Z" fill="#89E219"/><path d="M132.918 61.7358L131.713 60.7037C123.172 53.385 110.336 54.2922 103.052 62.7923L103.006 62.8468L94.4612 72.818C87.1773 81.318 88.1458 94.1492 96.6865 101.468L96.7413 101.515L97.9457 102.547C106.486 109.866 119.323 108.958 126.606 100.458L126.653 100.404L135.198 90.4326C142.481 81.9326 141.458 69.0545 132.918 61.7358Z" fill="#89E219"/><path d="M99.4318 22.3631C99.3818 21.0917 98.4591 20.3956 97.1646 20.7982C89.5777 23.5577 85.7041 31.9562 88.5014 39.5506C90.0651 43.8201 93.4917 47.1344 97.8892 48.5402C98.9825 48.8155 100.003 48.1783 100.282 47.1885C100.32 47.0326 100.359 46.8767 100.343 46.6739L99.4318 22.3631Z" fill="#89E219"/><path d="M90.4906 20.2764C90.5115 19.2548 89.6275 18.4028 88.6598 18.424C88.4569 18.4392 88.254 18.4543 88.0044 18.524C80.4175 21.2834 76.544 29.6819 79.3413 37.2763C80.905 41.5458 84.3316 44.8601 88.7291 46.2659C89.8224 46.5413 90.8432 45.9041 91.1217 44.9142C91.1603 44.7583 91.1989 44.6024 91.1828 44.3996L90.4906 20.2764Z" fill="#89E219"/><path d="M91.7469 26.4561C83.2062 19.1374 70.3234 20.0992 63.0395 28.5992L54.495 38.5704C47.2111 47.0705 48.1796 59.9016 56.7203 67.2203L56.7751 67.2673L57.9795 68.2994C66.5202 75.6181 79.3564 74.7108 86.6402 66.2108L86.6869 66.1563L95.2314 56.1851C102.515 47.685 101.547 34.8539 93.0061 27.5352L92.9514 27.4883L91.7469 26.4561Z" fill="#89E219"/><path d="M100.183 42.0957C100.562 50.0747 107.328 56.2508 115.311 55.9099C115.616 55.8872 115.92 55.8645 116.224 55.8417C107.836 65.8523 100.272 74.6793 93.4856 82.3771L85.539 75.4731L77.4991 68.678C84.0118 60.7456 91.6224 51.8641 100.183 42.0957Z" fill="#89E219"/><path d="M127.803 67.3707C121.507 61.9755 112.074 62.6798 106.704 68.9458L100.868 75.7568C95.6624 82.1636 96.6146 91.5788 102.996 96.7636C109.166 101.862 118.296 101.181 123.588 95.2264L129.425 88.4154C134.747 82.2039 134.053 72.8204 127.858 67.4176L127.803 67.3707Z" fill="white"/><path d="M120.659 72.4939C117.648 69.9136 113.185 70.2468 110.617 73.2436L105.574 79.1282C103.116 82.2188 103.618 86.6185 106.676 89.1443C109.616 91.4749 113.877 91.1568 116.414 88.4173L121.457 82.5327C123.924 79.5434 123.569 75.0818 120.659 72.4939Z" fill="#4B4B4B"/><path d="M123.428 76.0141C121.512 74.3721 118.727 74.6311 117.139 76.4836C115.552 78.3362 115.777 81.1755 117.639 82.7706C119.5 84.3657 122.341 84.1536 123.928 82.3011C125.516 80.4485 125.345 77.6562 123.483 76.0611L123.428 76.0141Z" fill="white"/><path d="M86.9617 32.3724C80.6657 26.9772 71.2318 27.6815 65.8623 33.9475L60.0259 40.7585C54.8206 47.1653 55.7728 56.5805 62.1541 61.7653C68.3246 66.8639 77.4541 66.1824 82.7463 60.2281L88.5828 53.4171C93.9056 47.2056 93.211 37.8221 87.0164 32.4193C87.0164 32.4193 87.0164 32.4193 86.9617 32.3724Z" fill="white"/><path d="M82.993 40.2168C79.9819 37.6365 75.5185 37.9697 72.9505 40.9665L67.9079 46.8511C65.4493 49.9418 65.952 54.3414 69.0098 56.8672C71.9501 59.1978 76.2105 58.8797 78.748 56.1402L83.7906 50.2556C86.2572 47.2663 85.9027 42.8047 82.993 40.2168Z" fill="#4B4B4B"/><path d="M86.3797 43.561C84.4635 41.919 81.6779 42.1779 80.0904 44.0305C78.5029 45.8831 78.7285 48.7223 80.5899 50.3174C82.4514 51.9125 85.2917 51.7005 86.8792 49.8479C88.4747 48.0967 88.3039 45.3044 86.3797 43.561C86.4344 43.6079 86.4344 43.6079 86.3797 43.561Z" fill="white"/><path d="M77.6088 65.5588C72.1964 54.5895 66.5152 45.3742 60.7923 38.2022C60.7923 38.2022 49.2916 48.8531 55.889 59.326C64.3045 72.7743 77.6088 65.5588 77.6088 65.5588ZM105.827 102.214C117.242 107.176 125.951 94.1321 125.951 94.1321C118.033 89.521 107.955 85.3262 96.3407 81.7051C96.3874 81.6506 91.2953 95.9032 105.827 102.214Z" fill="#89E219"/><path d="M92.6746 67.0353C89.4445 64.2673 84.5754 64.6308 81.7658 67.7986C81.7658 67.7986 81.7658 67.7986 81.7191 67.8531L73.3614 77.6064C70.6066 80.8211 70.9466 85.7429 74.2315 88.5578C77.4617 91.3258 82.3855 91.0092 85.187 87.7399L93.5447 77.9867C96.2448 74.725 95.8581 69.8577 92.6746 67.0353Z" fill="#F49000"/><path d="M90.714 69.3234C88.1955 67.1653 84.4423 67.4455 82.2945 69.9519L76.7382 76.4359C74.5904 78.9423 74.8885 82.6942 77.4069 84.8523C79.9253 87.0104 83.6239 86.6833 85.8264 84.2237L91.3827 77.7397C93.4838 75.2878 93.1857 71.5359 90.714 69.3234Z" fill="#B66E28"/><path d="M86.7918 73.9003L80.0287 65.8369C79.9111 65.6417 79.895 65.4389 80.0898 65.3223C84.685 61.5111 91.5781 62.2206 95.3671 66.8849C98.2478 70.393 98.6426 75.3617 96.35 79.256C96.2099 79.4194 95.9604 79.4891 95.8509 79.3952L86.7918 73.9003Z" fill="#FFC200"/><path d="M89.0472 67.6115C89.1567 67.7054 89.2662 67.7992 89.4224 67.8385C90.6413 68.4106 91.6268 69.255 92.3788 70.3719C92.8957 71.0984 93.8715 71.1785 94.596 70.6654C95.2191 70.1599 95.4042 69.279 94.9968 68.6464C93.9002 67.0452 92.422 65.7785 90.7265 64.9871C89.9294 64.5876 88.994 65.0144 88.6446 65.7545C88.3886 66.3857 88.4998 67.1424 89.0472 67.6115Z" fill="#FFDE00"/><g clip-path="url(#clip1)"><g opacity="0.3"><mask id="path-23-outside-1" maskUnits="userSpaceOnUse" x="97.1023" y="21.1025" width="117.162" height="112.503" fill="black"><rect fill="white" x="97.1023" y="21.1025" width="117.162" height="112.503"/><path fill-rule="evenodd" clip-rule="evenodd" d="M165.643 57.1903C162.656 55.7485 161.403 52.1581 162.845 49.1709C164.287 46.1837 167.877 44.9309 170.864 46.3727C173.851 47.8144 175.104 51.4048 173.662 54.392C172.221 57.3792 168.63 58.632 165.643 57.1903ZM190.366 96.7472C193.074 93.8901 191.353 89.4624 187.921 88.7353C193.273 82.1593 191.152 72.1699 183.376 68.4169L145.82 50.2907C138.049 46.5399 128.915 51.0864 127.088 59.3582C124.383 57.1231 119.846 58.5311 119.295 62.4286L115.134 91.8182C114.808 94.1181 116.007 96.3647 118.099 97.3744L163.76 119.413C165.852 120.423 168.357 119.964 169.955 118.278L190.366 96.7472Z"/></mask><path fill-rule="evenodd" clip-rule="evenodd" d="M165.643 57.1903C162.656 55.7485 161.403 52.1581 162.845 49.1709C164.287 46.1837 167.877 44.9309 170.864 46.3727C173.851 47.8144 175.104 51.4048 173.662 54.392C172.221 57.3792 168.63 58.632 165.643 57.1903ZM190.366 96.7472C193.074 93.8901 191.353 89.4624 187.921 88.7353C193.273 82.1593 191.152 72.1699 183.376 68.4169L145.82 50.2907C138.049 46.5399 128.915 51.0864 127.088 59.3582C124.383 57.1231 119.846 58.5311 119.295 62.4286L115.134 91.8182C114.808 94.1181 116.007 96.3647 118.099 97.3744L163.76 119.413C165.852 120.423 168.357 119.964 169.955 118.278L190.366 96.7472Z" fill="#D6DAFE"/><path d="M187.921 88.7353L183.797 85.379L178.301 92.1324L186.819 93.9369L187.921 88.7353ZM190.366 96.7472L194.225 100.405L194.225 100.405L190.366 96.7472ZM183.376 68.4169L181.065 73.2055L183.376 68.4169ZM145.82 50.2907L148.131 45.5021L145.82 50.2907ZM127.088 59.3582L123.701 63.457L130.405 68.9966L132.28 60.5047L127.088 59.3582ZM119.295 62.4286L124.559 63.1739L124.559 63.1739L119.295 62.4286ZM115.134 91.8182L109.869 91.0728L109.869 91.0728L115.134 91.8182ZM169.955 118.278L173.814 121.936L169.955 118.278ZM158.056 46.8597C155.338 52.4916 157.7 59.2606 163.332 61.9788L167.954 52.4017C167.612 52.2364 167.468 51.8247 167.633 51.4821L158.056 46.8597ZM173.175 41.5841C167.544 38.8659 160.774 41.2279 158.056 46.8597L167.633 51.4821C167.799 51.1395 168.21 50.9959 168.553 51.1612L173.175 41.5841ZM178.451 56.7032C181.169 51.0714 178.807 44.3023 173.175 41.5841L168.553 51.1612C168.896 51.3265 169.039 51.7383 168.874 52.0808L178.451 56.7032ZM163.332 61.9788C168.964 64.697 175.733 62.3351 178.451 56.7032L168.874 52.0808C168.709 52.4234 168.297 52.5671 167.954 52.4017L163.332 61.9788ZM186.819 93.9369C186.512 93.8718 186.421 93.6798 186.404 93.6309C186.387 93.5803 186.369 93.4825 186.396 93.3479C186.409 93.2802 186.432 93.2168 186.46 93.1634C186.488 93.1094 186.51 93.0856 186.507 93.0891L194.225 100.405C200.005 94.3078 196.214 85.057 189.023 83.5336L186.819 93.9369ZM181.065 73.2055C185.722 75.4534 186.999 81.4442 183.797 85.379L192.045 92.0915C199.546 82.8744 196.581 68.8864 185.687 63.6284L181.065 73.2055ZM143.509 55.0792L181.065 73.2055L185.687 63.6284L148.131 45.5021L143.509 55.0792ZM132.28 60.5047C133.373 55.5552 138.854 52.8326 143.509 55.0792L148.131 45.5021C137.244 40.2472 124.456 46.6176 121.896 58.2118L132.28 60.5047ZM124.559 63.1739C124.56 63.1692 124.555 63.2018 124.531 63.2574C124.506 63.3122 124.471 63.3695 124.426 63.4222C124.337 63.527 124.249 63.5732 124.199 63.5914C124.15 63.6091 123.944 63.6573 123.701 63.457L130.475 55.2594C124.808 50.5762 115.208 53.3655 114.03 61.6832L124.559 63.1739ZM120.398 92.5635L124.559 63.1739L114.03 61.6832L109.869 91.0728L120.398 92.5635ZM120.41 92.5858C120.407 92.5843 120.406 92.5834 120.406 92.5832C120.405 92.5831 120.405 92.5829 120.405 92.5827C120.404 92.5822 120.403 92.5802 120.401 92.5766C120.399 92.5731 120.398 92.5705 120.398 92.5696C120.398 92.5693 120.398 92.5692 120.398 92.5688C120.398 92.5686 120.398 92.567 120.398 92.5635L109.869 91.0728C109.219 95.6635 111.612 100.148 115.788 102.163L120.41 92.5858ZM166.072 114.624L120.41 92.5858L115.788 102.163L161.449 124.201L166.072 114.624ZM166.096 114.62C166.094 114.622 166.093 114.623 166.093 114.623C166.092 114.624 166.092 114.624 166.092 114.624C166.091 114.624 166.089 114.625 166.085 114.626C166.081 114.627 166.078 114.627 166.077 114.627C166.077 114.626 166.077 114.626 166.077 114.626C166.076 114.626 166.075 114.626 166.072 114.624L161.449 124.201C165.625 126.217 170.624 125.301 173.814 121.936L166.096 114.62ZM186.507 93.0891L166.096 114.62L173.814 121.936L194.225 100.405L186.507 93.0891Z" fill="#C6C1FA" mask="url(#path-23-outside-1)"/></g><mask id="path-25-outside-2" maskUnits="userSpaceOnUse" x="101.543" y="25.1082" width="108.716" height="103.591" fill="black"><rect fill="white" x="101.543" y="25.1082" width="108.716" height="103.591"/><path fill-rule="evenodd" clip-rule="evenodd" d="M165.643 57.1902C162.656 55.7485 161.403 52.1581 162.845 49.1709C164.287 46.1837 167.877 44.9309 170.864 46.3726C173.851 47.8144 175.104 51.4048 173.662 54.392C172.221 57.3792 168.63 58.632 165.643 57.1902ZM190.366 96.7472C193.074 93.8904 191.354 89.463 187.922 88.7355C193.274 82.1595 191.152 72.17 183.377 68.417L145.821 50.2907C138.05 46.5399 128.915 51.0867 127.089 59.3588C124.384 57.123 119.846 58.5308 119.295 62.4286L115.134 91.8182C114.808 94.1182 116.007 96.3647 118.099 97.3744L163.76 119.413C165.852 120.423 168.357 119.964 169.955 118.278L190.366 96.7472Z"/></mask><path fill-rule="evenodd" clip-rule="evenodd" d="M165.643 57.1902C162.656 55.7485 161.403 52.1581 162.845 49.1709C164.287 46.1837 167.877 44.9309 170.864 46.3726C173.851 47.8144 175.104 51.4048 173.662 54.392C172.221 57.3792 168.63 58.632 165.643 57.1902ZM190.366 96.7472C193.074 93.8904 191.354 89.463 187.922 88.7355C193.274 82.1595 191.152 72.17 183.377 68.417L145.821 50.2907C138.05 46.5399 128.915 51.0867 127.089 59.3588C124.384 57.123 119.846 58.5308 119.295 62.4286L115.134 91.8182C114.808 94.1182 116.007 96.3647 118.099 97.3744L163.76 119.413C165.852 120.423 168.357 119.964 169.955 118.278L190.366 96.7472Z" fill="#D6DAFE"/><path d="M187.922 88.7355L186.272 87.393L184.074 90.0939L187.481 90.8161L187.922 88.7355ZM190.366 96.7472L191.909 98.2105L190.366 96.7472ZM183.377 68.417L184.301 66.5016L183.377 68.417ZM145.821 50.2907L144.897 52.2062L145.821 50.2907ZM127.089 59.3588L125.734 60.9981L128.416 63.215L129.166 59.8173L127.089 59.3588ZM119.295 62.4286L121.4 62.7268L119.295 62.4286ZM115.134 91.8182L113.028 91.5201L113.028 91.5201L115.134 91.8182ZM169.955 118.278L168.412 116.815L168.412 116.815L169.955 118.278ZM160.929 48.2464C158.977 52.2915 160.673 57.1533 164.719 59.1057L166.567 55.2748C164.638 54.3436 163.829 52.0247 164.76 50.0954L160.929 48.2464ZM171.789 44.4572C167.744 42.5049 162.882 44.2013 160.929 48.2464L164.76 50.0954C165.691 48.166 168.01 47.3569 169.94 48.288L171.789 44.4572ZM175.578 55.3165C177.53 51.2714 175.834 46.4096 171.789 44.4572L169.94 48.288C171.869 49.2192 172.678 51.5382 171.747 53.4675L175.578 55.3165ZM164.719 59.1057C168.764 61.058 173.625 59.3615 175.578 55.3165L171.747 53.4675C170.816 55.3969 168.497 56.206 166.567 55.2748L164.719 59.1057ZM187.481 90.8161C189.409 91.2249 190.302 93.7233 188.822 95.284L191.909 98.2105C195.846 94.0575 193.298 87.7011 188.363 86.6549L187.481 90.8161ZM182.452 70.3324C188.981 73.4834 190.764 81.8734 186.272 87.393L189.571 90.078C195.783 82.4455 193.324 70.8566 184.301 66.5016L182.452 70.3324ZM144.897 52.2062L182.452 70.3324L184.301 66.5016L146.745 48.3753L144.897 52.2062ZM129.166 59.8173C130.698 52.8742 138.372 49.057 144.897 52.2062L146.745 48.3753C137.727 44.0228 127.132 49.2992 125.012 58.9003L129.166 59.8173ZM121.4 62.7268C121.702 60.5972 124.214 59.7418 125.734 60.9981L128.444 57.7195C124.554 54.5041 117.991 56.4645 117.189 62.1305L121.4 62.7268ZM117.24 92.1164L121.4 62.7268L117.189 62.1305L113.028 91.5201L117.24 92.1164ZM119.023 95.459C117.765 94.8516 117.044 93.5 117.24 92.1164L113.028 91.5201C112.572 94.7363 114.249 97.8779 117.175 99.2898L119.023 95.459ZM164.685 117.497L119.023 95.459L117.175 99.2898L162.836 121.328L164.685 117.497ZM168.412 116.815C167.45 117.829 165.943 118.105 164.685 117.497L162.836 121.328C165.761 122.74 169.264 122.099 171.499 119.741L168.412 116.815ZM188.822 95.284L168.412 116.815L171.499 119.741L191.909 98.2105L188.822 95.284Z" fill="white" mask="url(#path-25-outside-2)"/><path d="M187.332 89.4129C193.415 82.8663 191.424 72.3014 183.377 68.4171L145.821 50.2908C137.773 46.4065 128.263 51.4208 126.922 60.2558L125.274 71.1079C124.4 76.8685 127.383 82.5262 132.63 85.0589L164.362 100.374C169.61 102.907 175.895 101.723 179.861 97.4542L187.332 89.4129Z" fill="#5C6CFC"/><path d="M119.295 62.4285C119.932 57.927 125.885 56.7464 128.192 60.664L134.882 72.0249L158.195 63.9698C160.969 63.0117 163.995 64.471 164.972 67.2375L173.196 90.5171L186.209 88.6839C190.712 88.0494 193.495 93.4464 190.366 96.7471L169.955 118.278C168.357 119.964 165.852 120.422 163.76 119.413L118.099 97.3743C116.007 96.3646 114.808 94.118 115.134 91.8181L119.295 62.4285Z" fill="#A7A0FF"/><circle r="6.00585" transform="matrix(-0.90059 -0.43467 -0.43467 0.90059 168.254 51.7814)" fill="#A7A0FF"/><path d="M132.443 77.7707L144.524 74.1006C146.583 73.475 148.363 75.6649 147.329 77.5529L135.87 98.4846C135.46 99.2325 134.537 99.5284 133.769 99.1578L123.737 94.316C123.088 94.0028 122.728 93.2949 122.858 92.5861L125.943 75.6768C126.324 73.5879 129.03 72.9844 130.262 74.7132L132.443 77.7707Z" fill="#BFAFFF"/><path d="M173.16 98.2317C174.498 96.7541 176.388 95.8967 178.382 95.8633L182.168 95.7998C183.581 95.7761 184.33 97.461 183.365 98.4941L168.337 114.592C167.858 115.104 167.101 115.246 166.47 114.941L162.524 113.037C161.561 112.572 161.316 111.312 162.033 110.519L173.16 98.2317Z" fill="#AFB5FF"/><rect width="15.6044" height="15.6044" rx="2.66927" transform="matrix(-0.944171 0.329455 0.329455 0.944171 154.308 80.7288)" fill="#5C6CFC"/><path d="M150.587 84.1686C151.485 83.8552 152.313 84.7841 151.9 85.6408L149.83 89.9301C149.573 90.4612 148.935 90.6839 148.404 90.4276L144.115 88.3573C143.258 87.9438 143.329 86.701 144.227 86.3877L150.587 84.1686Z" fill="#D6DAFE"/><path opacity="0.3" d="M208.888 53.3178C209.14 52.7565 210.213 52.8371 210.375 53.4305C210.756 54.8273 211.355 56.479 212.229 57.5412C213.207 58.7298 214.957 59.6998 216.39 60.3503C216.943 60.601 216.861 61.6247 216.277 61.7855C214.688 62.2223 212.69 62.9566 211.502 64.0871C210.512 65.0296 209.651 66.7211 209.07 68.0748C208.838 68.6166 207.917 68.5617 207.754 67.9951C207.338 66.5485 206.691 64.7107 205.856 63.637C204.837 62.3263 202.976 61.2675 201.515 60.5826C200.977 60.3303 201.055 59.3698 201.629 59.2129C203.184 58.7874 205.192 58.0853 206.379 57.0749C207.443 56.1698 208.297 54.6364 208.888 53.3178Z" fill="#A9A1FF"/><path fill-rule="evenodd" clip-rule="evenodd" d="M154.057 125.186C157.086 130.832 165.079 131.168 168.676 125.866C170.457 123.241 170.652 119.816 169.153 117.021C166.124 111.375 158.13 111.039 154.533 116.341C152.752 118.966 152.557 122.391 154.057 125.186Z" fill="#58CC02"/></g><path opacity="0.35" d="M208.786 92.8131C208.174 92.3093 208.594 90.9192 209.384 90.8447C210.545 90.7351 211.785 90.5015 212.713 90.0294C213.791 89.4817 214.839 88.4159 215.679 87.3866C216.173 86.7812 217.49 87.1851 217.561 87.9633C217.688 89.3661 217.989 90.9447 218.66 92.0588C219.22 92.9886 220.282 93.942 221.281 94.7091C221.883 95.1719 221.548 96.3446 220.791 96.4125C219.504 96.528 218.054 96.7604 217.074 97.2247C215.869 97.7958 214.706 98.9602 213.808 100.042C213.318 100.631 212.093 100.251 212.031 99.4877C211.918 98.0915 211.656 96.4884 211.07 95.3815C210.576 94.4469 209.685 93.5536 208.786 92.8131Z" fill="#F9D6FF"/></g><defs><clipPath id="clip0"><rect width="223" height="145" fill="white" transform="translate(0.265869)"/></clipPath><clipPath id="clip1"><rect width="95.7081" height="95.7081" fill="white" transform="translate(132.99 14.5413) rotate(25.7643)"/></clipPath></defs></svg>