<svg width="193" height="232" viewBox="0 0 193 232" fill="none" xmlns="http://www.w3.org/2000/svg"><path d="M66.1208 221.747C62.1537 222.394 58.4186 219.699 57.7783 215.727C57.1379 211.756 59.8348 208.011 63.8019 207.364C65.3607 207.11 66.5001 206.255 67.6155 204.255C69.5765 200.74 74.0096 199.478 77.5171 201.436C81.0246 203.394 82.2784 207.832 80.3174 211.347C77.1088 217.1 72.2448 220.748 66.1208 221.747Z" fill="#F49000"/><path d="M187.919 191.327L152.284 114.663C150.374 110.553 145.028 109.507 141.725 112.597C125.858 127.441 121.188 151.218 130.603 171.473C140.017 191.727 161.175 203.422 182.709 200.77C187.191 200.218 189.829 195.436 187.919 191.327Z" fill="#58CC02"/><path d="M41.6066 70.1191L102.453 128.703C105.715 131.843 104.958 137.238 100.959 139.358C81.7436 149.543 57.7392 146.24 41.6637 130.762C25.5881 115.285 21.4397 91.4818 30.9782 71.9803C32.9635 67.9215 38.3452 66.979 41.6066 70.1191Z" fill="#43C000"/><path d="M48.1591 65.1359C34.7254 61.4917 26.7185 47.5371 30.3661 33.9381C34.0137 20.339 47.8922 12.2507 61.4149 15.8949C74.8487 19.5391 82.8555 33.4936 79.208 47.0927C75.5604 60.6917 61.5929 68.78 48.1591 65.1359Z" fill="#FFC800"/><path d="M45.0451 46.115L58.9236 49.848C62.8381 50.9146 65.1512 54.7366 64.1726 58.3808C64.0836 58.8252 63.9057 59.1807 63.7278 59.5362L59.2795 68.6912C57.856 71.7132 54.2974 73.2242 50.9168 72.3353L40.6858 69.58C37.3051 68.6912 34.992 65.5803 35.2589 62.2027L35.9706 52.0701C36.2375 48.2482 39.7072 45.4928 43.7106 45.8483C44.2444 45.9372 44.6892 45.9372 45.0451 46.115Z" fill="#FFC800"/><path d="M41.5756 73.2251L49.2266 75.2694C51.4507 75.8916 52.9631 77.6692 52.5183 79.2691C52.0735 80.869 49.9383 81.669 47.6252 81.0468L39.9742 79.0025C37.7501 78.3803 36.2377 76.6026 36.6825 75.0028C37.1273 73.4029 39.2625 72.6029 41.5756 73.2251Z" fill="#C9C9C9"/><path d="M37.8391 62.6466L57.5004 67.8907C59.6356 68.424 60.97 70.3794 60.5252 72.1571C60.0804 73.9347 57.9452 74.9124 55.8101 74.3791L36.1488 69.1351C34.0136 68.6018 32.6791 66.6464 33.1239 64.8687C33.5688 63.0911 35.7039 62.0245 37.8391 62.6466Z" fill="#D7D7D7"/><path d="M37.3945 68.6038L54.9207 73.3146C56.8779 73.8479 58.0344 75.5367 57.6786 77.1366C57.2338 78.7365 55.3655 79.6253 53.4082 79.092L35.8821 74.3812C33.9249 73.8479 32.7683 72.1591 33.1242 70.5593C33.48 68.9594 35.4373 68.1594 37.3945 68.6038Z" fill="#D7D7D7"/><path d="M45.7573 41.0492C49.688 41.0492 52.8745 37.8656 52.8745 33.9385C52.8745 30.0115 49.688 26.8279 45.7573 26.8279C41.8266 26.8279 38.6401 30.0115 38.6401 33.9385C38.6401 37.8656 41.8266 41.0492 45.7573 41.0492Z" fill="#FFDC5E"/><path fill-rule="evenodd" clip-rule="evenodd" d="M166.945 83.5951C142.832 81.2585 127.582 78.7969 121.194 76.2102C117.545 74.7326 114.371 71.6401 111.671 66.9326C106.466 57.8591 94.8921 54.7224 85.8186 59.9266C82.1324 62.0408 79.2643 65.3333 77.6756 69.2745L56.3578 122.158C44.7434 150.969 58.6554 183.744 87.4488 195.404C116.184 207.04 148.911 193.178 160.547 164.443C160.558 164.416 160.569 164.389 160.58 164.361L182.684 109.527C186.595 99.826 181.9 88.7911 172.199 84.8803C170.518 84.2027 168.749 83.7699 166.945 83.5951Z" fill="#58CC02"/><path fill-rule="evenodd" clip-rule="evenodd" d="M122.979 94.7489C116.576 97.8171 109.653 94.0731 107.59 88.462C104.34 79.9041 99.5788 88.8462 93.3082 115.288L114.921 124.04C124.561 102.467 127.247 92.7034 122.979 94.7489Z" fill="#89E219"/><path fill-rule="evenodd" clip-rule="evenodd" d="M143.795 94.5041L142.31 93.9026C131.547 89.5441 119.288 94.7362 114.93 105.5C114.925 105.51 114.921 105.52 114.917 105.53L110.165 117.318C105.829 128.076 111.023 140.314 121.775 144.668L123.26 145.269C134.023 149.628 146.282 144.435 150.64 133.672C150.645 133.662 150.649 133.652 150.653 133.642L155.405 121.854C159.741 111.096 154.547 98.8578 143.795 94.5041Z" fill="#89E219"/><path d="M143.214 84.8768L120.653 95.5961C119.461 96.1779 119.183 97.7536 120.103 98.708C124.525 103.294 131.501 104.545 137.373 101.678C143.246 98.81 146.555 92.5363 145.669 86.2246C145.484 84.9109 144.406 84.2951 143.214 84.8768Z" fill="#89E219"/><path d="M149.199 92.1342L126.955 102.996C125.763 103.578 125.484 105.154 126.405 106.108C130.828 110.693 137.807 111.943 143.684 109.074C149.56 106.204 152.873 99.9286 151.987 93.6163C151.803 92.3025 150.391 91.5521 149.199 92.1342Z" fill="#89E219"/><path d="M100.917 66.9346L106.78 86.4573C107.078 87.4976 106.046 88.5925 104.743 88.6197C98.4813 88.7502 93.1778 85.4162 91.711 80.2886C90.2441 75.161 92.9787 69.5153 98.3573 66.2983C99.4767 65.6287 100.62 65.8943 100.917 66.9346Z" fill="#89E219"/><path d="M92.948 67.9164L98.5039 87.3379C98.8017 88.3788 97.7704 89.4743 96.4671 89.5012C90.2053 89.6307 84.9009 86.2935 83.4331 81.1624C81.9652 76.0313 84.6989 70.3825 90.0772 67.1645C91.1965 66.4947 92.6502 66.8755 92.948 67.9164Z" fill="#89E219"/><path fill-rule="evenodd" clip-rule="evenodd" d="M96.8464 75.5567C88.395 72.1343 78.7694 76.2112 75.3471 84.6627C75.3438 84.6707 75.3406 84.6787 75.3373 84.6867L67.228 104.804C63.812 113.278 67.9038 122.917 76.3724 126.346C84.8239 129.769 94.4495 125.692 97.8718 117.241C97.8751 117.232 97.8783 117.224 97.8815 117.216L105.991 97.0996C109.407 88.6256 105.315 78.986 96.8464 75.5567Z" fill="#89E219"/><path d="M95.4785 83.5861C89.1515 81.0298 81.9502 84.0866 79.394 90.4136L73.6486 104.634C71.0924 110.961 74.1491 118.162 80.4761 120.718C86.8031 123.275 94.0044 120.218 96.5607 113.891L102.306 99.6706C104.862 93.3437 101.805 86.1424 95.4785 83.5861Z" fill="white"/><path d="M95.4785 83.5861C89.1515 81.0298 81.9502 84.0866 79.394 90.4136L73.6486 104.634C71.0924 110.961 74.1491 118.162 80.4761 120.718C86.8031 123.275 94.0044 120.218 96.5607 113.891L102.306 99.6706C104.862 93.3437 101.805 86.1424 95.4785 83.5861Z" fill="white"/><path fill-rule="evenodd" clip-rule="evenodd" d="M92.9947 86.0875C89.95 84.795 86.4341 86.2154 85.1415 89.2601C85.1415 89.2602 85.1414 89.2603 85.1414 89.2605L80.9231 99.199C79.6307 102.244 81.0514 105.76 84.0963 107.053C87.141 108.345 90.657 106.925 91.9495 103.88C91.9496 103.88 91.9496 103.88 91.9497 103.88L96.1679 93.9415C97.4603 90.8964 96.0397 87.3802 92.9947 86.0875Z" fill="#4B4B4B"/><path d="M94.539 96.1704C91.8304 95.076 90.5237 91.9882 91.6204 89.2736C92.7172 86.559 95.8021 85.2456 98.5108 86.3399C101.219 87.4343 102.526 90.5221 101.429 93.2367C100.333 95.9513 97.2477 97.2647 94.539 96.1704Z" fill="white"/><path d="M108.974 159.053L95.6014 154.443C94.8846 154.196 94.1483 154.684 94.1472 155.407C94.1422 158.88 96.4981 162.092 100.031 163.31C103.564 164.528 107.396 163.449 109.527 160.709C109.971 160.138 109.691 159.3 108.974 159.053Z" fill="#89E219"/><path d="M86.8843 151.447L73.5114 146.837C72.7947 146.59 72.0583 147.078 72.0573 147.801C72.0522 151.275 74.4081 154.487 77.9412 155.705C81.4743 156.923 85.3058 155.844 87.4375 153.103C87.8812 152.533 87.6011 151.694 86.8843 151.447Z" fill="#89E219"/><path d="M93.4205 166.313L80.0477 161.703C79.3309 161.456 78.5946 161.944 78.5935 162.667C78.5885 166.14 80.9444 169.352 84.4774 170.57C88.0105 171.788 91.842 170.709 93.9738 167.969C94.4175 167.399 94.1373 166.56 93.4205 166.313Z" fill="#89E219"/><path d="M139.357 100.781C131.415 97.6939 122.475 101.629 119.388 109.571C119.385 109.578 119.382 109.586 119.379 109.594L115.925 118.522C112.844 126.484 116.794 135.437 124.752 138.531C132.693 141.617 141.633 137.682 144.72 129.74C144.723 129.733 144.726 129.725 144.729 129.718L148.183 120.79C151.264 112.827 147.314 103.874 139.357 100.781Z" fill="white"/><path d="M139.621 100.886C131.723 97.6878 122.729 101.497 119.531 109.395C119.528 109.402 119.525 109.41 119.521 109.417L115.942 118.296C112.75 126.215 116.574 135.222 124.487 138.427C132.385 141.625 141.379 137.815 144.577 129.918C144.58 129.91 144.583 129.903 144.586 129.895L148.166 121.017C151.358 113.098 147.534 104.09 139.621 100.886Z" fill="white"/><path fill-rule="evenodd" clip-rule="evenodd" d="M132.232 101.984C128.529 100.484 124.31 102.271 122.81 105.975C122.809 105.978 122.807 105.982 122.806 105.985L119.733 113.607C118.236 117.321 120.029 121.546 123.741 123.049C127.445 124.549 131.664 122.762 133.163 119.058C133.165 119.055 133.166 119.051 133.168 119.048L136.24 111.426C137.737 107.712 135.944 103.487 132.232 101.984Z" fill="#4B4B4B"/><path d="M134.84 112.206C131.919 112.257 129.51 109.925 129.459 106.997C129.408 104.07 131.734 101.656 134.655 101.605C137.576 101.554 139.986 103.886 140.037 106.813C140.088 109.74 137.761 112.155 134.84 112.206Z" fill="white"/><path fill-rule="evenodd" clip-rule="evenodd" d="M105.962 115.643L104.532 115.094C100.463 113.532 95.8988 115.565 94.3369 119.634L89.8164 131.41C88.2545 135.479 90.2868 140.043 94.3557 141.605L95.7853 142.154C99.8542 143.716 104.419 141.684 105.981 137.615L110.501 125.838C112.063 121.77 110.031 117.205 105.962 115.643Z" fill="#F49000"/><path d="M104.294 115.521C101.175 114.324 97.6756 115.882 96.4783 119.001L92.5066 129.347C91.3094 132.466 92.8672 135.965 95.9863 137.163C99.1053 138.36 102.604 136.802 103.802 133.683L107.773 123.336C108.971 120.217 107.413 116.718 104.294 115.521Z" fill="white"/><path d="M104.294 115.521C101.175 114.324 97.6756 115.882 96.4783 119.001L92.5066 129.347C91.3094 132.466 92.8672 135.965 95.9863 137.163C99.1053 138.36 102.604 136.802 103.802 133.683L107.773 123.336C108.971 120.217 107.413 116.718 104.294 115.521Z" fill="#CD7900"/><path fill-rule="evenodd" clip-rule="evenodd" d="M103.577 134.197C102.938 133.515 102.139 132.963 101.208 132.605C98.2614 131.474 94.9929 132.677 93.4387 135.306C94.0865 136.113 94.9502 136.765 95.9862 137.162C98.9287 138.292 102.209 136.969 103.577 134.197Z" fill="#FFAADE"/><path d="M111.104 126.333C112.177 121.12 109.251 115.808 104.143 113.847C99.0336 111.886 93.3055 113.876 90.6142 118.468L90.4294 118.783L94.8228 122.468L111.03 126.691L111.104 126.333Z" fill="#FFC200"/><path d="M103.917 119.205C104.59 119.758 105.583 119.66 106.136 118.986C106.689 118.311 106.592 117.316 105.92 116.763C104.288 115.422 102.393 114.694 100.283 114.6C99.413 114.561 98.6754 115.235 98.6351 116.106C98.5948 116.977 99.2671 117.715 100.137 117.754C101.567 117.819 102.811 118.296 103.917 119.205Z" fill="#FFDE00"/><path d="M107.22 215.646L118.494 215.646" stroke="#F49000" stroke-width="13.9556" stroke-linecap="round"/><g style="mix-blend-mode:multiply" opacity="0.3"><path fill-rule="evenodd" clip-rule="evenodd" d="M147.998 222.688L54.5931 222.737C52.2752 222.739 50.3965 224.617 50.3953 226.935L50.3953 226.944C50.3941 229.264 52.2735 231.145 54.5931 231.146C54.5945 231.146 54.596 231.146 54.5975 231.146L148.002 231.097C150.32 231.096 152.199 229.217 152.2 226.899L152.2 226.89C152.201 224.571 150.322 222.689 148.002 222.688C148.001 222.688 147.999 222.688 147.998 222.688Z" fill="#AFAFAF"/></g><path fill-rule="evenodd" clip-rule="evenodd" d="M33.7362 81.7995C35.3969 80.3825 37.9207 79.0246 41.3075 77.7258C43.9888 76.6976 45.3289 73.6903 44.3006 71.009C43.8945 69.95 43.1533 69.0528 42.1899 68.4542C38.2537 66.0084 33.08 67.2167 30.6342 71.1529C30.1784 71.8866 29.8385 72.6862 29.6267 73.5236L26.7613 84.8505C28.3248 85.45 30.6497 84.433 33.7362 81.7995Z" fill="#43C000"/><path fill-rule="evenodd" clip-rule="evenodd" d="M79.8067 14.3977L75.0672 12.8121C74.0322 12.4659 73.4739 11.3462 73.8202 10.3113C74.0093 9.74584 74.4437 9.29605 75.0022 9.08727L79.6835 7.33727L81.269 2.59776C81.6153 1.56282 82.7349 1.0045 83.7699 1.35073C84.3353 1.53989 84.7851 1.97425 84.9939 2.53274L86.7439 7.21403L91.4834 8.79959C92.5183 9.14582 93.0766 10.2655 92.7304 11.3004C92.5412 11.8659 92.1069 12.3157 91.5484 12.5244L86.8671 14.2744L85.2816 19.0139C84.9353 20.0489 83.8157 20.6072 82.7807 20.261C82.2153 20.0718 81.7655 19.6375 81.5567 19.079L79.8067 14.3977Z" fill="#FFEDAC"/><path fill-rule="evenodd" clip-rule="evenodd" d="M7.82703 51.6195L3.08752 50.0339C2.05257 49.6877 1.49426 48.568 1.84049 47.533C2.02965 46.9676 2.46401 46.5178 3.0225 46.309L7.70379 44.559L9.28935 39.8195C9.63558 38.7846 10.7552 38.2263 11.7902 38.5725C12.3556 38.7617 12.8054 39.196 13.0142 39.7545L14.7642 44.4358L19.5037 46.0214C20.5387 46.3676 21.097 47.4873 20.7507 48.5222C20.5616 49.0876 20.1272 49.5374 19.5687 49.7462L14.8874 51.4962L13.3019 56.2357C12.9556 57.2707 11.836 57.829 10.801 57.4827C10.2356 57.2936 9.78581 56.8592 9.57703 56.3007L7.82703 51.6195Z" fill="#FFEDAC"/></svg>