<svg width="253" height="289" viewBox="0 0 253 289" fill="none" xmlns="http://www.w3.org/2000/svg"><path d="M83.6547 169.075L168.829 113.841C173.394 110.88 179.525 113.231 180.937 118.484C187.72 143.721 177.377 170.893 154.875 185.486C132.372 200.079 103.306 198.462 82.9775 182.009C78.7464 178.585 79.0893 172.035 83.6547 169.075Z" fill="#58CC02"/><rect x="166.52" y="112.561" width="25.1934" height="12.5967" rx="6.29834" fill="#58CC02"/><path d="M35.4159 251.695L55.3859 157.832C56.4563 152.8 62.1295 150.277 66.59 152.848C88.021 165.199 99.2969 190.29 94.0209 215.088C88.7449 239.887 68.2291 258.225 43.6223 260.801C38.5009 261.337 34.3455 256.726 35.4159 251.695Z" fill="#58CC02"/><path fill-rule="evenodd" clip-rule="evenodd" d="M164.411 270.826C162.515 274.538 157.972 276.014 154.257 274.126L146.891 270.382C146.886 270.38 146.881 270.377 146.876 270.375C143.175 268.484 141.708 263.951 143.598 260.25C145.494 256.539 150.037 255.063 153.752 256.951L161.119 260.694C161.123 260.697 161.128 260.699 161.133 260.702C164.834 262.592 166.301 267.125 164.411 270.826Z" fill="#F49000"/><path fill-rule="evenodd" clip-rule="evenodd" d="M123.415 267.437C123.415 271.616 120.027 275.004 115.848 275.004H103.762C99.5827 275.004 96.1948 271.616 96.1948 267.437C96.1948 263.258 99.5827 259.87 103.762 259.87H115.848C120.027 259.87 123.415 263.258 123.415 267.437Z" fill="#F49000"/><path fill-rule="evenodd" clip-rule="evenodd" d="M169.216 267.467C169.216 271.629 165.842 275.004 161.679 275.004H159.349C155.187 275.004 151.812 271.629 151.812 267.467C151.812 263.304 155.187 259.929 159.349 259.929H161.679C165.842 259.929 169.216 263.304 169.216 267.467Z" fill="#F49000"/><path fill-rule="evenodd" clip-rule="evenodd" d="M102.452 109.646C104.168 107.681 106.26 106.079 108.603 104.933C118.326 100.178 130.062 104.205 134.817 113.928L161.438 168.365C161.455 168.402 161.473 168.438 161.491 168.474C175.562 197.401 163.519 232.258 134.592 246.329C105.588 260.439 70.6359 248.404 56.4664 219.428L29.9434 165.191C28.781 162.814 28.112 160.226 27.9768 157.584C27.4236 146.775 35.7374 137.564 46.5462 137.011C62.7863 136.18 73.4277 134.538 78.4704 132.085C83.5533 129.613 91.5472 122.133 102.452 109.646Z" fill="#58CC02"/><path d="M101.268 121.954C101.648 120.634 102.872 120.23 104.013 120.996C109.492 124.681 112.025 131.57 110.151 138.077C108.278 144.584 102.464 149.09 95.8571 149.323C94.482 149.371 93.4613 148.066 93.8414 146.746L101.268 121.954Z" fill="#89E219"/><path fill-rule="evenodd" clip-rule="evenodd" d="M95.0181 141.663C101.199 154.173 106.683 165.386 111.469 175.303C98.0141 181.764 91.3032 185.029 91.3365 185.097C91.3864 185.199 81.5034 164.989 74.873 151.43C82.8837 154.722 92.585 150.035 95.0181 141.663Z" fill="#89E219"/><path d="M111.013 122.099C111.393 120.778 112.953 120.209 114.094 120.976C119.573 124.662 122.104 131.555 120.229 138.067C118.355 144.578 112.54 149.088 105.933 149.322C104.557 149.371 103.537 148.066 103.917 146.745L111.013 122.099Z" fill="#89E219"/><path d="M56.4737 143.856L80.4146 153.687C81.6797 154.223 82.0511 155.837 81.1481 156.875C76.8094 161.863 69.649 163.545 63.4131 160.906C57.1772 158.267 53.417 151.963 54.0021 145.387C54.1238 144.018 55.2086 143.321 56.4737 143.856Z" fill="#89E219"/><path d="M50.4531 151.522L74.0723 161.518C75.3383 162.054 75.7104 163.668 74.8071 164.706C70.4671 169.694 63.3029 171.375 57.0628 168.734C50.8226 166.093 47.0586 159.787 47.6424 153.21C47.7639 151.841 49.1871 150.986 50.4531 151.522Z" fill="#89E219"/><path fill-rule="evenodd" clip-rule="evenodd" d="M107.563 128.276C118.351 123.027 131.352 127.504 136.623 138.282L143.609 152.568C143.616 152.582 143.622 152.595 143.629 152.609C148.885 163.414 144.387 176.433 133.582 181.689L131.956 182.48C121.167 187.728 108.166 183.252 102.895 172.474L95.909 158.188C95.9024 158.174 95.8958 158.16 95.8892 158.147C90.6333 147.342 95.1314 134.323 105.936 129.067L107.563 128.276Z" fill="#89E219"/><path fill-rule="evenodd" clip-rule="evenodd" d="M56.7235 152.486C56.7601 152.468 56.7968 152.45 56.8334 152.433C67.6674 147.237 80.6615 151.809 85.8568 162.642L92.7332 176.982C97.9078 187.773 93.395 200.718 82.6333 205.953L81.1163 206.691C70.3276 211.939 57.3266 207.462 52.056 196.684L45.0697 182.398C45.0631 182.384 45.0565 182.371 45.0499 182.357C39.794 171.553 44.2921 158.533 55.0967 153.277L56.7235 152.486V152.486Z" fill="#89E219"/><path fill-rule="evenodd" clip-rule="evenodd" d="M111.805 135.38C119.768 131.507 129.362 134.81 133.252 142.764L137.445 151.34C137.45 151.35 137.455 151.36 137.46 151.37C141.323 159.31 138.017 168.879 130.076 172.742C122.114 176.615 112.519 173.311 108.63 165.357L104.436 156.782C104.431 156.772 104.427 156.762 104.422 156.752C100.559 148.811 103.865 139.243 111.805 135.38V135.38Z" fill="white"/><path fill-rule="evenodd" clip-rule="evenodd" d="M60.5091 160.504C68.4711 156.631 78.0658 159.934 81.9554 167.888L86.1489 176.464C86.1538 176.474 86.1586 176.484 86.1635 176.493C90.0262 184.434 86.7204 194.003 78.7797 197.866C70.8176 201.739 61.223 198.435 57.3333 190.481L53.1398 181.906C53.135 181.896 53.1301 181.886 53.1253 181.876C49.2625 173.935 52.5684 164.367 60.5091 160.504V160.504Z" fill="white"/><path fill-rule="evenodd" clip-rule="evenodd" d="M113.711 144.923C117.465 143.097 121.988 144.654 123.822 148.404L127.425 155.772C127.427 155.777 127.43 155.782 127.432 155.786C129.253 159.53 127.694 164.041 123.951 165.862C120.197 167.688 115.674 166.13 113.84 162.381L110.237 155.012C110.235 155.008 110.233 155.003 110.23 154.998C108.409 151.255 109.968 146.744 113.711 144.923V144.923Z" fill="#4B4B4B"/><path fill-rule="evenodd" clip-rule="evenodd" d="M66.996 167.306C70.7495 165.48 75.2727 167.037 77.1064 170.787L80.7096 178.155C80.7119 178.16 80.7142 178.165 80.7165 178.169C82.5375 181.913 80.979 186.424 77.2356 188.245C73.482 190.071 68.9588 188.513 67.1251 184.764L63.5219 177.395C63.5196 177.391 63.5173 177.386 63.515 177.381C61.694 173.638 63.2525 169.127 66.996 167.306V167.306Z" fill="#4B4B4B"/><path d="M60.1338 201.306L52.2007 185.191C67.0702 182.333 79.4595 183.26 93.4523 187.85L87.241 203.09C78.2224 199.155 69.3336 198.577 60.1338 201.306Z" fill="#89E219"/><path d="M143.873 163.176C135.434 167.735 129.558 174.412 125.971 183.556L110.773 177.159C117.414 164.045 125.518 154.653 138.058 146.186L143.873 163.176Z" fill="#89E219"/><path fill-rule="evenodd" clip-rule="evenodd" d="M97.698 172.174C101.793 170.182 106.727 171.881 108.728 175.972L109.72 178.001C109.722 178.006 109.725 178.011 109.727 178.016C111.714 182.1 110.014 187.021 105.93 189.007C101.835 190.999 96.9007 189.3 94.9003 185.21L93.9081 183.181C93.9056 183.176 93.9031 183.171 93.9006 183.165C91.9141 179.082 93.6142 174.161 97.698 172.174V172.174Z" fill="#F49000"/><path d="M111.735 175.531L112.026 176.126L102.59 182.88L91.4436 186.138L91.1525 185.543C89.7224 180.432 92.2652 174.689 97.0755 172.349C102.474 169.723 108.577 171.26 111.735 175.531Z" fill="#FFC200"/><path d="M101.719 173.294C102.616 173.2 103.42 173.851 103.514 174.748C103.608 175.645 102.957 176.448 102.06 176.542C100.664 176.689 99.5095 177.251 98.5345 178.257C97.9069 178.905 96.873 178.922 96.2253 178.294C95.5775 177.666 95.5611 176.633 96.1887 175.985C97.697 174.428 99.5611 173.521 101.719 173.294Z" fill="#FFDE00"/><path d="M134.28 201.056C134.986 200.713 135.81 201.134 135.909 201.887C136.385 205.503 134.392 209.129 130.916 210.818C127.44 212.507 123.346 211.84 120.779 209.24C120.244 208.699 120.419 207.792 121.124 207.45L134.28 201.056Z" fill="#89E219"/><path fill-rule="evenodd" clip-rule="evenodd" d="M77.8726 172.442C75.4854 173.603 72.6064 172.614 71.4421 170.234C70.2778 167.853 71.2692 164.981 73.6563 163.82C76.0435 162.659 78.9225 163.647 80.0868 166.028C81.2511 168.409 80.2598 171.281 77.8726 172.442Z" fill="white"/><path d="M111.38 212.476C112.085 212.133 112.91 212.554 113.009 213.306C113.484 216.923 111.492 220.549 108.016 222.238C104.54 223.927 100.446 223.26 97.8781 220.66C97.3437 220.119 97.5189 219.212 98.224 218.869L111.38 212.476Z" fill="#89E219"/><path d="M128.326 217.958C129.031 217.615 129.856 218.036 129.955 218.788C130.431 222.405 128.438 226.031 124.962 227.72C121.486 229.409 117.392 228.742 114.824 226.142C114.29 225.601 114.465 224.694 115.17 224.351L128.326 217.958Z" fill="#89E219"/><path fill-rule="evenodd" clip-rule="evenodd" d="M123.673 150.059C121.286 151.22 118.407 150.231 117.243 147.851C116.079 145.47 117.07 142.598 119.457 141.437C121.844 140.276 124.723 141.265 125.888 143.645C127.052 146.026 126.061 148.898 123.673 150.059Z" fill="white"/><path opacity="0.3" fill-rule="evenodd" clip-rule="evenodd" d="M177.472 275.004C179.995 275.004 182.04 277.049 182.04 279.572C182.04 282.095 179.995 284.14 177.472 284.14H75.3126C72.7898 284.14 70.7446 282.095 70.7446 279.572C70.7446 277.049 72.7898 275.004 75.3126 275.004H177.472Z" fill="#AFAFAF"/><path opacity="0.35" d="M209.697 12.9206C208.773 12.5396 208.765 10.7077 209.689 10.3258C211.049 9.76353 212.457 9.02314 213.402 8.10995C214.499 7.05059 215.368 5.37748 216 3.82538C216.372 2.91242 218.109 2.91195 218.482 3.82423C219.155 5.46858 220.102 7.26074 221.324 8.35558C222.344 9.26941 223.978 10.0258 225.465 10.5812C226.363 10.9163 226.393 12.4545 225.505 12.8165C223.997 13.432 222.334 14.2492 221.324 15.1719C220.082 16.3068 219.111 18.1412 218.429 19.7778C218.057 20.6695 216.438 20.6653 216.081 19.7675C215.428 18.1257 214.518 16.2898 213.402 15.1719C212.46 14.2281 211.056 13.4805 209.697 12.9206Z" fill="#E7A601"/><path fill-rule="evenodd" clip-rule="evenodd" d="M149.159 28.4152L161.202 19.096C162.079 18.417 163.157 18.0486 164.267 18.0486H192.85C193.931 18.0486 194.983 18.3984 195.849 19.0459L208.381 28.4169C209.884 29.5407 210.769 31.3074 210.769 33.1841V34.561C211.678 34.3496 212.622 35.0319 212.622 36.0399V44.015L224.768 40.6351C229.489 39.3214 233.77 43.1447 233.544 47.8262C232.928 60.5927 224.322 71.7469 211.999 75.1761C210.858 75.4936 209.713 75.7373 208.568 75.9096C203.867 85.165 195.327 91.9864 185.153 94.0827C183.107 95.0148 182.369 96.1697 182.209 97.1413V97.8974C182.428 98.8393 183.158 100.001 184.819 100.616H192.048C194.183 100.616 195.913 102.347 195.913 104.482C195.913 104.799 195.875 105.107 195.803 105.402H199.288C201.423 105.402 203.154 107.133 203.154 109.268C203.154 111.403 201.423 113.134 199.288 113.134H157.62C155.485 113.134 153.755 111.403 153.755 109.268C153.755 107.133 155.485 105.402 157.62 105.402H161.92C161.848 105.107 161.809 104.799 161.809 104.482C161.809 102.347 163.54 100.616 165.675 100.616H172.545C174.227 99.8521 174.762 98.4709 174.805 97.5386V97.2995L174.805 97.294L174.805 97.2943V97.0574C174.723 96.2042 174.209 95.1822 172.729 94.2876C162.061 92.4613 153.068 85.4665 148.208 75.8587C147.24 75.6938 146.272 75.4775 145.307 75.2083C132.99 71.7723 124.347 60.6078 123.658 47.8342C123.405 43.1524 127.665 39.2935 132.407 40.6165L144.547 44.0033V37.9766L144.548 37.9768V35.9526C144.548 34.8098 145.765 34.0784 146.774 34.6147L146.849 34.6546V33.1228C146.849 31.2808 147.702 29.5425 149.159 28.4152ZM212.481 59.4372C212.481 62.233 212.168 64.953 211.578 67.5614C219.834 64.6319 225.609 56.8802 226.172 47.9225L212.481 51.7324V59.4372ZM144.547 59.4372V51.6828L131.031 47.9121C131.648 56.7828 137.335 64.4697 145.433 67.4848C144.854 64.8998 144.547 62.2057 144.547 59.4372Z" fill="#5C6CFC"/><path d="M172.048 55.5152L131.482 44.1984C129.308 43.5918 127.207 45.3621 127.333 47.6945C127.938 58.901 135.513 68.6364 146.23 71.6263C156.948 74.6162 168.142 70.117 173.988 60.7101C175.205 58.7523 174.223 56.1218 172.048 55.5152Z" stroke="#FFC123" stroke-width="7.39851"/><path d="M225.689 44.2177L185.116 55.508C182.941 56.1132 181.973 58.7387 183.203 60.6932C189.116 70.0838 200.357 74.5765 211.076 71.5936C221.796 68.6107 229.327 58.8941 229.866 47.7081C229.979 45.3799 227.863 43.6125 225.689 44.2177Z" stroke="#FFC123" stroke-width="7.39851"/><path d="M161.202 19.096L149.159 28.4152C147.702 29.5425 146.85 31.2808 146.85 33.1228V47.6735H210.769V33.1841C210.769 31.3074 209.885 29.5407 208.382 28.4169L195.849 19.0459C194.983 18.3984 193.931 18.0486 192.85 18.0486H164.267C163.158 18.0486 162.08 18.417 161.202 19.096Z" fill="#E09015"/><path fill-rule="evenodd" clip-rule="evenodd" d="M144.547 37.9768V35.9527C144.547 34.8098 145.764 34.0784 146.773 34.6147L162.512 42.9784L178.537 36.8805C178.882 36.7493 179.262 36.7483 179.608 36.8778L195.88 42.9784L210.355 34.7237C211.366 34.1477 212.621 34.8771 212.621 36.0399V48.4408L212.48 48.5615V59.4372C212.48 78.9438 197.273 94.757 178.514 94.757C159.754 94.757 144.547 78.9438 144.547 59.4372V37.9766L144.547 37.9768Z" fill="#FFC123"/><path d="M212.256 49.291V59.4385C212.256 78.9451 197.048 94.7583 178.289 94.7583C162.865 94.7583 149.843 84.0687 145.699 69.4256C166.511 94.8189 209.465 75.5358 212.256 49.291Z" fill="#E09015"/><path d="M161.81 104.481C161.81 102.347 163.54 100.616 165.675 100.616H192.048C194.183 100.616 195.914 102.347 195.914 104.481V104.481C195.914 106.616 194.183 108.347 192.048 108.347H165.675C163.54 108.347 161.81 106.616 161.81 104.481V104.481Z" fill="#E09015"/><rect x="174.806" y="90.2268" width="7.40408" height="16.6152" fill="#E09015"/><path d="M169.551 101.175C173.912 101.175 174.871 98.5876 174.805 97.2941L180.354 102.298L171.466 106.383C169.011 104.647 165.191 101.175 169.551 101.175Z" fill="#E09015"/><path d="M169.6 93.047C173.829 94.1533 174.818 95.9917 174.818 97.3105L180.354 92.2978L171.467 89.5233C169.011 91.2594 165.795 92.0513 169.6 93.047Z" fill="#E09015"/><path d="M187.392 93.3087C183.163 94.415 182.174 96.2535 182.174 97.5723L176.638 92.5595L185.526 88.4746C187.981 90.2107 191.197 92.313 187.392 93.3087Z" fill="#E09015"/><path d="M187.518 101.043C183.157 101.043 182.072 98.4564 182.137 97.1628L176.715 102.167L185.603 106.252C188.058 104.516 191.878 101.043 187.518 101.043Z" fill="#E09015"/><path d="M150.536 30.5688L161.678 21.9623C162.437 21.3764 163.535 21.9347 163.509 22.8927L163.181 34.8187C163.161 35.5696 162.43 36.0943 161.712 35.8738L150.897 32.5544C150.016 32.284 149.807 31.1322 150.536 30.5688Z" fill="#F3A735"/><path d="M153.754 109.268C153.754 107.133 155.485 105.402 157.62 105.402H199.288C201.423 105.402 203.153 107.133 203.153 109.268V109.268C203.153 111.403 201.423 113.134 199.288 113.134H157.62C155.485 113.134 153.754 111.403 153.754 109.268V109.268Z" fill="#FFC123"/></svg>