<svg width="212" height="200" viewBox="0 0 212 200" fill="none" xmlns="http://www.w3.org/2000/svg"><path d="M19.9332 75.8755L97.9944 57.9306C102.177 56.9728 106.111 60.3924 105.733 64.6409C103.904 85.1752 88.9358 102.466 68.2783 107.256C47.6207 112.046 26.5508 102.928 15.8949 85.332C13.6989 81.5937 15.7501 76.8333 19.9332 75.8755Z" fill="#3072C6"/><path d="M30.8732 73.3207L52.11 68.4676L53.6699 76.325C54.0601 78.386 52.7761 80.315 50.7166 80.6975L36.7509 83.4397C34.6914 83.8221 32.7576 82.5308 32.3674 80.4699L30.8732 73.3207Z" fill="#235390"/><path d="M176.51 124.463C180.589 125.744 182.288 130.638 179.845 134.139C168.057 151.096 146.381 158.604 126.205 152.442C106.028 146.28 92.3304 127.877 91.947 107.187C91.8683 102.916 96.0031 99.7743 100.082 101.056L176.51 124.463Z" fill="#3072C6"/><path fill-rule="evenodd" clip-rule="evenodd" d="M107.283 35.5566C116.753 37.433 125.248 40.8425 132.703 45.6733C140.247 50.5277 146.703 56.9797 152.32 64.8119C162.215 78.796 162.567 97.4948 153.25 111.903L132.712 143.608C116.662 168.395 83.7269 175.435 59.051 159.38C34.375 143.324 27.4187 110.295 43.4687 85.5089L64.007 53.8034C73.4123 39.4191 90.4965 32.1919 107.283 35.5566Z" fill="#3072C6"/><path fill-rule="evenodd" clip-rule="evenodd" d="M124.931 41.3242C127.686 42.629 130.306 44.0866 132.792 45.6969C135.277 47.3072 137.715 49.0937 139.994 51.121L75.5004 150.66C74.2315 152.587 71.6423 153.121 69.7007 151.94L61.7016 146.68C59.7837 145.41 59.2564 142.814 60.4375 140.864L124.931 41.3242Z" fill="white"/><path fill-rule="evenodd" clip-rule="evenodd" d="M100.465 132.984L111.996 140.513C113.762 141.647 114.272 143.956 113.138 145.73C112.004 147.503 109.702 148.02 107.936 146.886L96.4049 139.357C94.639 138.223 94.1286 135.914 95.2625 134.14C96.42 132.278 98.6987 131.85 100.465 132.984Z" fill="#235390"/><path d="M63.7197 120.233C67.2288 115.564 66.3382 108.956 61.7305 105.475C57.1228 101.993 50.5428 102.956 47.0337 107.626C43.5246 112.295 44.4152 118.903 49.0229 122.384C53.6306 125.866 60.2106 124.903 63.7197 120.233Z" fill="white"/><path d="M52.2432 125.446C50.8387 125.07 49.4172 124.406 48.1779 123.413C42.934 119.458 41.9193 112.009 45.8713 106.74C49.8232 101.472 57.2738 100.352 62.5178 104.307C65.0199 106.205 66.6242 108.996 67.0976 112.144C67.5711 115.293 66.7211 118.465 64.8244 120.979C62.9278 123.493 60.1194 125.196 56.9798 125.677C55.3222 125.894 53.7355 125.846 52.2432 125.446ZM57.8084 105.028C54.2971 104.087 50.3948 105.308 48.1572 108.392C45.0861 112.479 45.9113 118.178 49.8924 121.228C51.8509 122.697 54.221 123.332 56.6753 122.951C59.1295 122.57 61.246 121.342 62.714 119.375C64.1821 117.407 64.8195 115.028 64.532 112.59C64.2444 110.152 62.9373 108.008 60.9789 106.539C59.9557 105.792 58.8618 105.31 57.8084 105.028Z" fill="#235390"/><path fill-rule="evenodd" clip-rule="evenodd" d="M47.5253 119.177L49.155 115.553L45.927 113.555C46.0245 111.787 46.6081 109.96 47.7589 108.474L57.5027 111.085C58.9073 111.461 59.8293 112.936 59.4279 114.434C59.2863 114.962 58.9926 115.356 58.6112 115.726L51.26 122.444C50.5814 122.168 50.0141 121.827 49.3827 121.375C48.5993 120.787 48.032 120.446 47.495 119.641L47.5253 119.177Z" fill="#235390"/><path fill-rule="evenodd" clip-rule="evenodd" d="M103.338 40.4492C112.032 41.362 120.901 44.7774 129.772 50.6484C138.642 56.5194 145.338 63.1301 149.79 70.7447C156.68 82.6013 156.309 97.3288 148.895 108.847L139.736 123.014C137.309 126.802 133.1 129.169 128.556 129.273C113.8 129.569 99.8724 125.365 86.7274 116.838C73.5824 108.31 64.2078 97.2988 58.6913 83.827C56.9786 79.685 57.4163 74.8915 59.8191 71.1911L69.0252 56.8478C76.4393 45.3298 89.8033 38.9946 103.338 40.4492Z" fill="#235390"/><path fill-rule="evenodd" clip-rule="evenodd" d="M106.39 42.4003C113.53 52.6239 118.974 58.9933 122.833 61.444C126.669 63.9829 134.698 66.323 146.872 68.6408C147.473 69.5574 148.074 70.474 148.588 71.367C155.245 82.6891 154.84 96.8408 147.743 107.877L138.584 122.044C136.364 125.416 132.6 127.524 128.63 127.593C114.16 127.871 100.496 123.738 87.6789 115.393C74.7737 107.024 65.6152 96.2594 60.1393 82.9873C58.5955 79.2683 58.9793 75.027 61.1999 71.6555L70.3587 57.4885C77.5435 46.4756 90.2863 40.3517 103.335 41.8649C104.236 42.012 105.313 42.2061 106.39 42.4003Z" fill="#58CC02"/><path fill-rule="evenodd" clip-rule="evenodd" d="M147.584 108.118L138.449 122.197C136.228 125.568 132.465 127.676 128.494 127.746C121.965 127.885 115.584 127.12 109.44 125.473C103.5 120.954 100.676 113.587 101.815 106.526C99.5698 105.074 95.7982 102.647 90.5003 99.2443C84.6305 103.243 76.9232 103.917 70.3898 100.561C66.0503 95.3372 62.6019 89.5969 59.9805 83.2281C58.4367 79.5091 58.8205 75.2678 61.041 71.8964L69.9941 58.1464C74.2736 53.0601 80.5793 50.5945 86.8555 51.0484C88.1177 49.4979 89.5961 48.1941 91.4661 47.1842C92.5564 46.6264 93.9779 47.2906 94.1099 48.5536L94.8606 53.4767C94.9484 53.5002 95.0362 53.5238 95.0126 53.6119C96.3523 51.421 98.2829 49.4829 100.663 48.3262C101.753 47.7684 102.847 48.2504 103.067 49.537L106.617 70.6981C108.654 76.4381 114.496 80.2699 120.522 79.9013L141.127 74.2789C142.346 73.9444 143.498 74.914 143.454 76.13C143.343 78.6502 142.507 81.0703 141.103 83.1495C141.19 83.173 141.19 83.173 141.255 83.2846L145.42 82.1343C146.639 81.7998 147.79 82.7694 147.747 83.9854C147.649 85.7536 147.201 87.4278 146.513 88.9432C150.184 94.5544 150.672 101.862 147.584 108.118Z" fill="#89E219"/><path fill-rule="evenodd" clip-rule="evenodd" d="M91.6027 117.955C90.2048 117.203 88.8306 116.362 87.5677 115.457C86.369 114.664 85.1703 113.871 83.9953 112.989C83.2385 110.898 83.437 108.401 84.7532 106.298L91.6443 95.6787C93.8884 92.2192 98.5808 91.21 102.025 93.455C105.469 95.7 106.466 100.406 104.222 103.865L97.3309 114.485C96.0148 116.587 93.8983 117.815 91.6027 117.955Z" fill="#F49000"/><path fill-rule="evenodd" clip-rule="evenodd" d="M100.392 96.0394C103.116 97.8083 103.847 101.404 102.078 104.141L97.4549 111.213C95.6866 113.95 92.1014 114.689 89.3765 112.92C86.6516 111.151 85.9215 107.556 87.6898 104.819L92.3132 97.7468C94.0815 95.0097 97.6666 94.2704 100.392 96.0394Z" fill="#B86D00"/><path d="M89.7461 93.2814C93.0503 89.7282 98.7961 89.0012 103.351 92.0161C107.427 94.7135 109.072 100.16 107.206 104.665L106.889 105.147L97.1955 100.944L89.4288 93.763L89.7461 93.2814Z" fill="#FFC200"/><path d="M98.8718 94.6878C98.0818 94.4761 97.5448 93.6712 97.7573 92.8782C97.9698 92.0851 98.7731 91.5449 99.5632 91.7566C101.518 92.1859 103.108 93.2732 104.294 94.8185C104.767 95.5118 104.618 96.4164 104.014 96.9156C103.41 97.4148 102.421 97.2442 101.924 96.639C101.06 95.6518 100.101 95.0171 98.8718 94.6878Z" fill="#FFDE00"/><path fill-rule="evenodd" clip-rule="evenodd" d="M92.0233 60.5548C98.7595 64.9096 100.737 74.0333 96.2721 80.8643L91.443 88.3531C87.0896 95.1194 77.9918 97.1203 71.1914 92.6538C64.4551 88.299 62.4778 79.1753 66.9425 72.3444L71.7717 64.8556C76.2128 58.1127 85.3107 56.1119 92.0233 60.5548Z" fill="white"/><path fill-rule="evenodd" clip-rule="evenodd" d="M89.4289 68.8314C92.6333 70.9177 93.5493 75.224 91.4874 78.3546L87.3399 84.7039C85.2543 87.9226 80.9603 88.8497 77.8437 86.7869C74.6393 84.7006 73.7233 80.3943 75.7853 77.2637L79.9328 70.9144C81.9305 67.6721 86.2246 66.7451 89.4289 68.8314Z" fill="#122431"/><path d="M81.1929 73.2352C83.52 73.8587 85.9138 72.4706 86.5397 70.1348C87.1656 67.799 85.7865 65.3999 83.4594 64.7764C81.1323 64.1528 78.7385 65.5409 78.1126 67.8768C77.4867 70.2126 78.8658 72.6116 81.1929 73.2352Z" fill="white"/><path fill-rule="evenodd" clip-rule="evenodd" d="M135.446 88.8111C142.182 93.1659 144.16 102.29 139.695 109.121L134.866 116.609C130.512 123.376 121.415 125.377 114.614 120.91C107.814 116.444 105.901 107.432 110.365 100.601L115.194 93.1118C119.636 86.369 128.646 84.3446 135.446 88.8111Z" fill="white"/><path fill-rule="evenodd" clip-rule="evenodd" d="M128.905 94.6134C132.109 96.6997 133.025 101.006 130.963 104.137L126.816 110.486C124.73 113.705 120.436 114.632 117.319 112.569C114.115 110.483 113.199 106.176 115.261 103.046L119.409 96.6964C121.518 93.3896 125.788 92.5506 128.905 94.6134Z" fill="#122431"/><path d="M120.061 98.4765C122.388 99.1001 124.782 97.712 125.408 95.3762C126.034 93.0403 124.654 90.6413 122.327 90.0178C120 89.3942 117.606 90.7823 116.981 93.1181C116.355 95.454 117.734 97.853 120.061 98.4765Z" fill="white"/><path d="M66.8908 69.0253C73.4824 75.3245 80.0643 83.4155 86.613 93.3864L78.6031 98.7007C76.885 99.8458 74.5554 99.4105 73.3295 97.6654C69.0099 91.3139 65.7747 87.2361 61.638 83.0112C60.5337 81.8654 60.3206 80.2028 61.0495 78.8871L66.8908 69.0253Z" fill="#8EE000"/><path d="M137.644 115.37L133.837 121.15C131.616 124.521 127.468 125.96 123.652 124.749C119.159 123.261 114.395 122.079 108.196 120.985C106.481 120.714 105.319 119.081 105.68 117.383L107.359 107.256C119.165 109.191 129.26 111.896 137.644 115.37Z" fill="#8EE000"/><path opacity="0.3929" fill-rule="evenodd" clip-rule="evenodd" d="M103.288 42.0411C111.894 42.9304 120.5 46.2753 129.394 52.0581C138.136 57.7059 144.656 64.2695 148.868 71.7254C155.326 83.0885 154.968 97.064 147.807 107.989L138.537 122.22C136.316 125.592 132.553 127.7 128.495 127.746C114.137 127.959 100.561 123.85 87.6554 115.481C74.8379 107.136 65.6794 96.3709 60.1563 83.2751C58.6125 79.5561 58.9963 75.3148 61.1291 71.9198L70.3993 57.6882C77.6718 46.6988 90.3033 40.6395 103.288 42.0411Z" fill="#98DDFF"/><path d="M98.742 62.1661C103.105 63.3353 107.594 60.7326 108.767 56.3529C109.941 51.9733 107.355 47.4751 102.992 46.3059C98.6284 45.1368 94.14 47.7395 92.9664 52.1191C91.7929 56.4988 94.3787 60.997 98.742 62.1661Z" fill="white"/><path d="M108.532 128.158C100.72 126.064 93.1736 122.626 85.9578 117.954C72.6609 109.291 63.006 97.9212 57.3612 84.2262C55.4796 79.6611 55.9475 74.4035 58.6675 70.2215L67.8264 56.0545C75.6692 43.9902 89.3674 37.4612 103.517 39.0804C112.386 40.0403 121.519 43.5263 130.565 49.4444C139.61 55.3624 146.499 62.3079 151.015 70.0342C158.226 82.449 157.825 97.6405 150.093 109.64L140.934 123.807C138.191 128.077 133.559 130.614 128.553 130.689C121.76 130.758 115.028 129.898 108.532 128.158ZM110.476 43.3061C108.018 42.6475 105.6 42.1886 103.224 41.9295C90.0636 40.4809 77.4557 46.4521 70.2474 57.5531L61.0885 71.7202C58.8679 75.0916 58.4842 79.3329 60.0279 83.0519C65.4397 96.2124 74.7501 107.112 87.5676 115.457C100.385 123.803 114.16 127.871 128.518 127.658C132.576 127.612 136.252 125.48 138.473 122.109L147.632 107.942C154.84 96.8408 155.198 82.8653 148.476 71.4317C144.241 64.0638 137.633 57.4767 128.891 51.829C122.809 47.8386 116.533 44.929 110.476 43.3061Z" fill="white"/></svg>