<svg width="148" height="148" viewBox="0 0 148 148" version="1.1" xmlns="http://www.w3.org/2000/svg"><title>mid-lesson duo mobile web</title><g stroke="none" stroke-width="1" fill="none" fill-rule="evenodd"><g transform="scale(-1 1) rotate(-45 10.396 245.022)"><path d="M2.937 94.184l36.261-65.325c1.944-3.501 6.748-4.087 9.488-1.157 13.165 14.077 15.858 35.323 6.278 52.582-9.58 17.259-29.051 26.237-47.983 22.548-3.94-.768-5.988-5.147-4.044-8.648zM140.202 94.184l-36.261-65.325c-1.944-3.501-6.748-4.087-9.488-1.157-13.165 14.077-15.858 35.323-6.278 52.582 9.58 17.259 29.051 26.237 47.983 22.548 3.94-.768 5.988-5.147 4.044-8.648z" fill="#78C800" fill-rule="nonzero"/><path d="M73.953 118.654a6.419 6.419 0 0 1 6.419-6.418h10.142a6.419 6.419 0 1 1 0 12.837H80.372a6.419 6.419 0 0 1-6.419-6.419z" fill="#F49000"/><path d="M44.942 1.325c13.039 5.534 21.97 8.302 26.796 8.302 4.793 0 13.583-2.731 26.37-8.194 8.497-3.63 18.328.316 21.958 8.814a16.731 16.731 0 0 1 1.346 6.572v52.217c0 27.542-22.328 49.87-49.87 49.87-27.541 0-49.868-22.328-49.868-49.87v-52.31c0-9.241 7.49-16.732 16.73-16.732 2.247 0 4.47.453 6.538 1.33z" fill="#78C800"/><path d="M50.14 10.38l15.075 16.373c.79.877.492 2.273-.59 2.755-5.197 2.32-11.389 1.032-15.287-3.294-3.898-4.326-4.532-10.614-1.68-15.537.593-1.024 1.692-1.174 2.483-.297z" fill="#8EE000" fill-rule="nonzero"/><path d="M61.936 23.564c5.028 5.567 14.266 5.542 19.197-.024v32.27c0-.066-6.4-.066-19.197 0a3537.4 3537.4 0 0 1 0-32.246z" fill="#8EE000"/><path d="M42.639 14.29l14.754 16.373c.79.878.492 2.273-.59 2.755-5.197 2.32-11.39 1.032-15.287-3.294-3.898-4.326-4.532-10.614-1.681-15.536a1.745 1.745 0 0 1 2.804-.298z" fill="#8EE000" fill-rule="nonzero"/><path d="M46.887 17.655h1.363c10.258 0 18.574 8.316 18.574 18.574v13.855c0 10.258-8.316 18.574-18.574 18.574h-1.363c-10.258 0-18.574-8.316-18.574-18.574V36.229c0-10.258 8.316-18.574 18.574-18.574z" fill="#8EE000"/><path d="M92.638 10.367L77.884 26.74a1.742 1.742 0 0 0 .59 2.755c5.197 2.319 11.39 1.032 15.287-3.294 3.898-4.326 4.532-10.614 1.68-15.537a1.745 1.745 0 0 0-2.803-.297z" fill="#8EE000" fill-rule="nonzero"/><path d="M100.058 14.29L85.304 30.663a1.742 1.742 0 0 0 .59 2.755c5.197 2.32 11.39 1.032 15.287-3.294 3.898-4.326 4.532-10.614 1.681-15.536a1.745 1.745 0 0 0-2.804-.298z" fill="#8EE000" fill-rule="nonzero"/><path d="M94.922 17.263h1.611c10.258 0 18.574 8.315 18.574 18.574V49.69c0 10.259-8.316 18.574-18.574 18.574h-1.505c-10.202 0-18.495-8.229-18.573-18.431l-.106-13.855c-.079-10.258 8.173-18.637 18.43-18.716h.143z" fill="#8EE000"/><path d="M47.064 24.717c7.552 0 13.674 6.122 13.674 13.674v8.522c0 7.552-6.122 13.674-13.674 13.674S33.39 54.465 33.39 46.913V38.39c0-7.552 6.122-13.674 13.674-13.674zM95.49 24.717c7.553 0 13.675 6.122 13.675 13.674v8.522c0 7.552-6.122 13.674-13.674 13.674s-13.674-6.122-13.674-13.674V38.39c0-7.552 6.122-13.674 13.674-13.674z" fill="#FFF"/><path d="M49.181 32.563a6.419 6.419 0 0 1 6.419 6.419v7.34a6.419 6.419 0 1 1-12.837 0v-7.34a6.419 6.419 0 0 1 6.418-6.419z" fill="#4B4B4B"/><path d="M71.61 47.864a6.977 6.977 0 0 1 6.976 6.977v2.3a6.977 6.977 0 1 1-13.953 0v-2.3a6.977 6.977 0 0 1 6.976-6.977z" fill="#F49000"/><path d="M61.899 55.71c.82-4.417 4.923-7.846 10.046-7.846 4.566 0 8.669 3.429 9.489 7.847v.56l-9.768 1.647L61.9 56.27v-.56z" fill="#FFC200" fill-rule="nonzero"/><path d="M69.32 51.027c1.488-.555 2.976-.555 4.464 0" stroke="#FFDE00" stroke-width="2.789" stroke-linecap="round" stroke-linejoin="round"/><path d="M93.312 32.563a6.419 6.419 0 0 1 6.419 6.419v7.34a6.419 6.419 0 1 1-12.837 0v-7.34a6.419 6.419 0 0 1 6.418-6.419z" fill="#4B4B4B"/><path d="M54.297 83.57l12.532-.004c.672 0 1.148.623.94 1.23-.997 2.918-3.897 4.934-7.208 4.936-3.311 0-6.21-2.013-7.205-4.93-.207-.608.27-1.23.941-1.231zM76.167 83.57l12.533-.004c.671 0 1.147.623.94 1.23-.998 2.918-3.898 4.934-7.209 4.936-3.311 0-6.21-2.013-7.205-4.93-.207-.608.27-1.23.941-1.231zM65.232 94.164l12.532-.005c.672 0 1.148.623.94 1.23-.997 2.918-3.897 4.934-7.208 4.935-3.311.002-6.21-2.012-7.205-4.93-.207-.607.27-1.23.941-1.23z" fill="#8EE000" fill-rule="nonzero"/><ellipse fill="#FFF" cx="43.824" cy="36.375" rx="4.186" ry="4.204"/><ellipse fill="#FFF" cx="87.174" cy="36.375" rx="4.186" ry="4.204"/></g></g></svg>