<svg width="329" height="407" viewBox="0 0 329 407" fill="none" xmlns="http://www.w3.org/2000/svg"><path opacity="0.3" fill-rule="evenodd" clip-rule="evenodd" d="M314.809 387.054H100.267C95.0212 387.054 90.5625 391.235 90.5625 396.722C90.5625 401.948 94.7589 406.39 100.267 406.39H314.809C320.055 406.39 324.513 402.21 324.513 396.722C324.513 391.235 320.055 387.054 314.809 387.054Z" fill="#AFAFAF"/><path fill-rule="evenodd" clip-rule="evenodd" d="M201.241 371.115C201.241 362.492 194.16 355.176 185.242 355.176H159.802C151.146 355.176 143.803 362.231 143.803 371.115C143.803 379.738 150.884 387.054 159.802 387.054H185.242C194.16 387.054 201.241 379.999 201.241 371.115Z" fill="#F49000"/><path fill-rule="evenodd" clip-rule="evenodd" d="M287.268 378.17C291.202 370.331 288.054 360.925 280.448 357.005L264.974 349.166C257.106 345.247 247.664 348.382 243.73 355.96C239.795 363.799 242.943 373.206 250.549 377.125L266.023 384.964C273.891 389.145 283.333 386.009 287.268 378.17Z" fill="#F49000"/><path fill-rule="evenodd" clip-rule="evenodd" d="M297.497 371.376C297.497 362.754 290.415 355.698 281.76 355.698H276.777C268.122 355.698 261.04 362.754 261.04 371.376C261.04 379.999 268.122 387.054 276.777 387.054H281.76C290.415 387.054 297.497 379.999 297.497 371.376Z" fill="#F49000"/><path d="M167.672 198.92L264.452 9.74054C269.697 -0.450069 283.336 -2.54045 291.466 5.55978C330.283 44.2318 339.987 104.33 314.547 154.238C289.106 204.146 234.29 231.582 179.999 222.959C168.721 221.13 162.426 209.111 167.672 198.92Z" fill="#58CC02"/><path d="M16.5991 338.192L58.5634 141.696C60.9239 131.244 72.7263 126.018 82.1683 131.244C127.28 157.112 150.885 209.633 139.869 261.37C128.854 313.107 85.3156 352.041 33.6471 357.266C22.8938 358.312 14.2386 348.905 16.5991 338.192Z" fill="#58CC02"/><path fill-rule="evenodd" clip-rule="evenodd" d="M157.181 41.0962C134.362 67.2259 117.577 82.9038 106.823 88.1298C96.3324 93.3557 73.7766 96.7526 39.6806 98.3204C17.1248 99.3656 -0.185475 118.702 0.863632 141.434C1.12591 146.922 2.43729 152.409 5.06006 157.374L60.6627 270.777C90.3 331.398 163.737 356.482 224.848 326.956C285.696 297.429 310.875 224.527 281.237 164.167V163.906L225.11 49.9803C215.144 29.5991 190.49 21.2375 170.032 31.1669C165.311 33.5185 160.852 36.9154 157.181 41.0962Z" fill="#58CC02"/><path d="M227.469 233.934C227.207 232.366 225.633 231.582 224.059 232.105L196.52 245.431C194.947 246.215 194.684 248.044 195.734 249.089C201.241 254.576 209.634 255.883 216.978 252.486C224.322 249.089 228.518 241.511 227.469 233.934ZM176.063 256.144L148.524 269.47C146.95 270.254 146.688 272.083 147.737 273.128C153.245 278.616 161.638 279.922 168.981 276.525C176.325 272.867 180.521 265.29 179.472 257.712C179.21 256.405 177.374 255.622 176.063 256.144ZM211.732 267.641L184.193 280.967C182.62 281.751 182.357 283.58 183.407 284.626C188.914 290.113 197.307 291.419 204.651 288.022C211.995 284.364 216.191 276.787 215.142 269.209C214.88 267.903 213.044 266.857 211.732 267.641Z" fill="#89E219"/><path d="M153.77 66.7036L138.296 118.702C137.509 121.576 139.607 124.189 142.492 124.189C156.393 123.666 168.457 114.26 172.392 100.672C176.326 87.0848 171.08 72.4521 159.54 64.8745C157.18 63.3067 154.557 64.0906 153.77 66.7036Z" fill="#89E219"/><path fill-rule="evenodd" clip-rule="evenodd" d="M141.444 107.989C136.461 125.495 116.265 135.425 99.4795 128.37C113.38 156.851 134.1 198.92 134.1 198.92C134.1 198.659 148.001 191.865 176.327 178.539C166.098 157.635 154.295 134.118 141.444 107.989Z" fill="#89E219"/><path d="M174.227 67.2261L159.277 118.702C158.49 121.576 160.588 124.189 163.473 124.189C177.374 123.666 189.439 114.26 193.373 100.672C197.307 87.0847 192.062 72.7133 180.521 64.8744C178.161 63.0453 175.014 64.3518 174.227 67.2261Z" fill="#89E219"/><path d="M60.6614 112.692L111.018 133.334C113.641 134.38 114.428 137.776 112.592 140.128C103.412 150.58 88.4627 153.977 75.3489 148.49C62.235 143.002 54.3667 129.676 55.6781 116.089C55.6781 112.953 58.0386 111.647 60.6614 112.692Z" fill="#89E219"/><path d="M48.5976 127.847L98.1679 148.751C100.791 149.796 101.578 153.193 99.7416 155.545C90.5619 165.997 75.6121 169.394 62.4983 163.906C49.3844 158.419 41.5161 145.093 42.8275 131.505C42.8275 128.37 45.9748 126.802 48.5976 127.847Z" fill="#89E219"/><path fill-rule="evenodd" clip-rule="evenodd" d="M167.932 80.0296L164.522 81.5974C141.704 92.5719 132.262 119.747 143.54 142.48L158.228 172.268C169.243 194.739 196.52 204.146 219.338 193.172L222.748 191.604C245.566 180.629 255.008 153.454 243.73 130.721L229.042 100.933C218.027 78.4618 190.75 69.0551 167.932 80.0296Z" fill="#89E219"/><path fill-rule="evenodd" clip-rule="evenodd" d="M61.1859 130.722L57.7763 132.289C34.9582 143.264 25.5162 170.439 36.7941 193.172L51.4816 222.96C62.4972 245.431 89.774 254.838 112.592 243.863L115.739 242.296C138.295 231.321 147.737 204.146 136.984 181.675L122.559 151.625C111.543 129.154 84.2662 119.747 61.1859 130.722C61.1859 130.722 61.4481 130.722 61.1859 130.722Z" fill="#89E219"/><path fill-rule="evenodd" clip-rule="evenodd" d="M69.3174 147.444C52.5317 155.545 45.7125 175.665 53.8431 192.126L62.7605 210.156C70.8911 226.879 91.0864 233.673 107.872 225.572C124.658 217.472 131.477 197.352 123.346 180.891L114.429 162.861C106.036 146.399 85.8408 139.344 69.3174 147.444Z" fill="white"/><path fill-rule="evenodd" clip-rule="evenodd" d="M82.6926 161.816C74.8243 165.735 71.677 175.142 75.3489 182.981L82.9549 198.397C86.889 206.236 96.331 209.372 104.199 205.714C112.068 201.794 115.215 192.388 111.543 184.549L103.937 169.132C100.265 161.032 90.8232 157.896 82.6926 161.816Z" fill="#4B4B4B"/><path d="M75.612 182.458C81.1164 182.458 85.5785 178.013 85.5785 172.529C85.5785 167.045 81.1164 162.6 75.612 162.6C70.1077 162.6 65.6455 167.045 65.6455 172.529C65.6455 178.013 70.1077 182.458 75.612 182.458Z" fill="white"/><path fill-rule="evenodd" clip-rule="evenodd" d="M176.852 94.9234C160.066 103.024 153.247 123.144 161.377 139.605L170.295 157.635C178.425 174.358 198.621 181.152 215.406 173.051C232.192 164.951 239.011 144.831 230.881 128.37L221.963 110.34C213.833 93.6169 193.637 86.8232 176.852 94.9234Z" fill="white"/><path fill-rule="evenodd" clip-rule="evenodd" d="M180.785 114.782C172.917 118.702 169.77 128.108 173.442 135.947L181.048 151.364C184.982 159.203 194.424 162.338 202.292 158.68C210.16 154.761 213.308 145.354 209.636 137.515L202.03 122.098C198.358 114.26 188.916 111.124 180.785 114.782Z" fill="#4B4B4B"/><path d="M173.178 136.47C178.683 136.47 183.145 132.024 183.145 126.541C183.145 121.057 178.683 116.611 173.178 116.611C167.674 116.611 163.212 121.057 163.212 126.541C163.212 132.024 167.674 136.47 173.178 136.47Z" fill="white"/><path d="M146.934 175.284C154.85 170.714 164.989 173.405 169.672 181.205C169.672 181.205 169.672 181.205 169.749 181.338L183.547 205.238C188.096 213.116 185.433 223.376 177.384 228.024C169.468 232.593 159.195 229.98 154.569 221.969L140.771 198.069C136.357 190.114 139.096 179.987 146.934 175.284Z" fill="#F49000"/><path d="M150.172 180.892C156.343 177.329 164.16 179.403 167.706 185.545L176.879 201.434C180.425 207.576 178.313 215.382 172.142 218.945C165.971 222.508 158.289 220.356 154.609 214.291L145.435 198.403C141.966 192.394 144.078 184.588 150.172 180.892Z" fill="#B66E28"/><path d="M156.647 192.108L174.115 177.75C174.441 177.384 174.555 176.962 174.19 176.639C165.99 166.775 151.152 165.55 141.307 173.904C133.838 180.175 131.041 190.513 134.345 199.643C134.576 200.044 135.076 200.289 135.344 200.135L156.647 192.108Z" fill="#FFC200"/><path d="M154.367 177.936C154.099 178.091 153.83 178.246 153.485 178.267C150.685 178.994 148.27 180.388 146.24 182.45C144.862 183.78 142.769 183.563 141.442 182.194C140.326 180.88 140.283 178.946 141.393 177.771C144.341 174.823 147.964 172.731 151.857 171.73C153.698 171.201 155.505 172.472 155.951 174.173C156.242 175.607 155.709 177.161 154.367 177.936Z" fill="#FFDE00"/></svg>